<?xml version="1.0" encoding="utf-8"?>
<!-- Generator: Adobe Illustrator 27.5.0, SVG Export Plug-In . SVG Version: 6.00 Build 0)  -->
<svg width="560px" height="454px" version="1.1" id="Capa_1" xmlns="http://www.w3.org/2000/svg" xmlns:xlink="http://www.w3.org/1999/xlink" x="0px" y="0px"
	 viewBox="0 0 2122 2122" style="enable-background:new 0 0 2122 2122;" xml:space="preserve">
<g>
	<path style="fill:#E36B33;" d="M976.836,1896.915c-59.066-7.866-114.465-23.955-164.256-46.606
		c-10.98,22.465-17.035,46.796-17.035,72.228c0,6.297,0.37,12.536,1.091,18.692l0.112,0.792
		c6.032,45.6,121.89,81.978,263.902,81.978c142.031,0,257.895-36.378,263.922-81.978l0.112-0.792
		c0.721-6.156,1.092-12.395,1.092-18.692c0-25.417-6.046-49.735-17.016-72.189c-72.747,33.101-157.532,52.113-248.08,52.113
		C1032.09,1902.462,1004.09,1900.579,976.836,1896.915z"/>
	<path style="fill:#F39041;" d="M812.58,1850.309c49.79,22.651,105.19,38.74,164.256,46.606
		c118.314-27.832,230.981-79.218,322.626-158.368c36.287-31.325,68.745-67.135,96.438-106.263
		c6.411-9.059,12.538-18.328,18.43-27.749c-88.848,30.357-214.436,49.281-353.65,49.281c-214.684,0-396.949-44.984-462.094-107.53
		c-9.588-9.14-16.604-18.726-20.853-28.585c-3.079-7.225-4.687-14.584-4.687-22.083c0-1.849,0.102-3.661,0.273-5.442
		c-1.335,11.33-2.022,22.867-2.022,34.509C571.296,1663.418,668.209,1784.63,812.58,1850.309z"/>
	<path style="fill:#FBC589;" d="M1542.969,1519.037c-3.216,7.018-7.805,13.864-13.759,20.538
		c-21.928,24.666-61.868,46.847-114.88,64.96c-5.892,9.421-12.019,18.689-18.43,27.749c-27.693,39.128-60.151,74.938-96.438,106.263
		c-91.645,79.15-204.312,130.536-322.626,158.368c27.255,3.664,55.255,5.547,83.844,5.547c90.548,0,175.333-19.013,248.08-52.113
		c144.37-65.692,241.264-186.94,241.264-325.662c0-11.642-0.687-23.179-2.022-34.509c0.171,1.781,0.278,3.593,0.278,5.442
		C1548.279,1503.561,1546.462,1511.402,1542.969,1519.037z"/>
	<path style="fill:#F8AE53;" d="M577.733,1517.702c4.248,9.859,11.264,19.445,20.853,28.585
		c65.145,62.545,247.41,107.53,462.094,107.53c139.214,0,264.802-18.924,353.65-49.281c53.012-18.113,92.953-40.294,114.88-64.96
		c5.954-6.675,10.543-13.52,13.759-20.538c3.493-7.635,5.31-15.476,5.31-23.418c0-1.849-0.107-3.661-0.278-5.442
		c-0.068-0.514-0.102-0.994-0.204-1.471c-0.192-1.457-0.46-2.909-0.773-4.355c-0.1-0.461-0.228-0.919-0.34-1.378
		c-0.242-0.996-0.502-1.992-0.802-2.983c-0.156-0.515-0.327-1.03-0.498-1.544c-0.318-0.956-0.661-1.91-1.032-2.861
		c-0.191-0.493-0.385-0.986-0.59-1.478c-0.432-1.031-0.903-2.059-1.396-3.084c-0.187-0.389-0.36-0.779-0.556-1.167
		c-1.456-2.887-3.151-5.748-5.082-8.58c-0.135-0.198-0.284-0.394-0.42-0.591c-0.844-1.216-1.73-2.426-2.66-3.631
		c-0.232-0.301-0.474-0.602-0.712-0.903c-0.894-1.13-1.826-2.256-2.795-3.378c-0.242-0.28-0.482-0.56-0.73-0.839
		c-1.079-1.222-2.202-2.438-3.369-3.648c-0.142-0.148-0.28-0.297-0.424-0.446c-4.106-4.212-8.744-8.348-13.883-12.4
		c-0.199-0.157-0.404-0.312-0.603-0.468c-1.504-1.176-3.05-2.343-4.639-3.504c-0.274-0.201-0.549-0.402-0.825-0.601
		c-1.599-1.156-3.239-2.303-4.92-3.443c-0.235-0.159-0.464-0.32-0.7-0.479c-3.877-2.608-7.958-5.179-12.257-7.704
		c-0.036-0.021-0.074-0.043-0.111-0.064c-0.119-0.069-0.243-0.138-0.362-0.208c-2.26-1.322-4.586-2.629-6.957-3.927
		c-0.457-0.25-0.915-0.5-1.376-0.749c-5.184-2.802-10.624-5.549-16.318-8.235c-0.307-0.145-0.62-0.289-0.93-0.434
		c-2.717-1.274-5.49-2.534-8.319-3.78c-0.205-0.09-0.406-0.181-0.612-0.271c-6.145-2.694-12.551-5.32-19.2-7.879
		c-0.28-0.108-0.559-0.215-0.839-0.322c-6.708-2.568-13.66-5.066-20.851-7.49c-0.137-0.046-0.275-0.091-0.411-0.138
		c-3.613-1.214-7.279-2.411-11.009-3.587c-0.003-0.001-0.006-0.002-0.009-0.002c-7.528-2.375-15.297-4.67-23.285-6.884
		c-0.213-0.059-0.427-0.118-0.64-0.177c-7.948-2.196-16.113-4.311-24.488-6.34c-0.178-0.044-0.358-0.086-0.536-0.129
		c-4.156-1.004-8.359-1.989-12.616-2.951c-0.022-0.005-0.045-0.01-0.068-0.015c-8.558-1.933-17.319-3.776-26.264-5.531
		c-0.393-0.077-0.783-0.154-1.177-0.231c-5.618-1.095-11.306-2.155-17.067-3.177l-0.034,31.6
		c97.022,25.313,159.911,65.869,159.911,111.593c0,76.718-176.989,138.913-395.322,138.913
		c-218.328,0-395.322-62.195-395.322-138.913c0-45.629,62.622-86.117,159.306-111.441l0.034-31.028
		c-143.267,26.012-241.932,74.802-249.396,131.263c-0.102,0.478-0.136,0.957-0.205,1.471c-0.171,1.781-0.273,3.593-0.273,5.442
		C573.046,1503.118,574.654,1510.477,577.733,1517.702z"/>
	<path style="fill:#BA461A;" d="M1133.81,1616.903c-123.278,10.818-257.032-6.677-298.664-39.062
		c-8.453-6.573-12.458-13.247-12.458-19.788l0.102-83.223l0.095-86.359c-96.683,25.324-159.306,65.812-159.306,111.441
		c0,76.718,176.994,138.913,395.322,138.913c218.333,0,395.322-62.195,395.322-138.913c0-45.724-62.889-86.279-159.911-111.593
		l-0.187,170.282C1294.092,1584.345,1232.094,1608.311,1133.81,1616.903z"/>
	<path style="fill:#EBD3B3;" d="M822.789,1474.83c8.01-3.596,16.156-6.811,24.375-9.688
		c48.716-17.013,100.443-23.622,149.841-38.479c94.865-28.551,183.839-93.082,218.076-186.029
		c16.497-44.814,23.722-160.251,79.59-181.854l0.176-140.156c-6.47-3.252-12.702-7.086-19.45-9.722
		c-16.122-6.368-37.072-4.382-47.274,9.62c-5.135,6.984-6.816,15.817-8.526,24.307c-2.806,14.207-6.061,28.621-13.315,41.116
		c-6.436,11.056-16.556,20.546-28.677,24.018c-1.143,25.482-11.903,52.224-34.022,64.908c-22.168,12.709-56,4.611-64.058-19.635
		c-3.333-10.019-2.066-20.915-0.599-31.369c3.711-26.454,8.45-53.039,12.46-79.638c-12.453-13.241-30.554-23.351-48.231-19.221
		c-17.598,4.109-28.999,20.541-39.883,34.953c-10.85,14.448-25.642,29.339-43.683,28.073c-3.505-0.253-6.85-1.174-10.059-2.492
		c-2.315,8.533-6.043,16.666-11.933,23.187c-7.834,8.677-20.014,14.017-31.425,11.491c-20.614-4.565-28.302-29.871-29.218-50.967
		c-0.803-18.479,0.632-36.886,2.724-55.275c-3.866-0.58-7.817-0.646-11.664-0.059c-11.912,1.815-22.665,8.799-30.538,17.939
		c-4.862,5.649-8.765,12.153-14.105,17.288l-0.451,410.3l-0.034,31.028L822.789,1474.83z"/>
	<path style="fill:#CE9052;" d="M1094.492,794.365c-1.925-10.175-4.687-20.684-11.615-28.385
		c-6.923-7.698-19.679-11.988-27.084-4.751c-12.482,12.198-11.771,32.353-8.175,49.433c3.596,17.077,9.154,35.023,3.469,51.525
		c-5.13,14.887-19.801,25.978-35.522,26.857c-5.774,0.321-11.82-0.711-16.526-4.073c-11.528-8.224-10.344-25.325-8.716-39.391
		c3.206-27.742,3.025-57.257-10.314-81.793c-4.56-8.382-11.527-16.553-20.969-17.905c-9.282-1.328-18.46,4.619-23.401,12.584
		c-4.941,7.966-6.392,17.584-6.987,26.938c-2.202,34.416,5.637,68.601,13.671,102.138c6.874,28.711,13.983,58.348,9.067,87.459
		c-0.483,2.86-1.095,5.719-1.86,8.536c3.209,1.319,6.554,2.239,10.059,2.492c18.041,1.267,32.833-13.625,43.683-28.073
		c10.884-14.412,22.285-30.843,39.883-34.953c17.678-4.13,35.778,5.98,48.231,19.221
		C1098.847,892.738,1103.739,843.2,1094.492,794.365z"/>
	<path style="fill:#CE9052;" d="M868.012,911.915c3.847-0.586,7.798-0.52,11.664,0.059c2.212-19.453,5.162-38.886,7.045-58.362
		c3.663-37.888,2.835-77.81-14.583-111.656c-1.71-3.33-4.024-6.916-7.698-7.615c-3.931-0.748-7.61,2.183-10.036,5.362
		c-12.224,16.024-7.069,38.565-5.705,58.674c1.174,17.231-1.564,36.037-13.647,48.375c-3.206,3.274-7.227,5.764-11.57,7.426
		l-0.113,92.964c5.34-5.135,9.243-11.639,14.105-17.288C845.347,920.714,856.1,913.729,868.012,911.915z"/>
	<path style="fill:#CE9052;" d="M1284.592,851.231c-3.639-5.71-4.175-12.794-4.609-19.554c-0.682-10.662-1.365-21.323-2.052-31.986
		c-0.843-13.201-1.827-27.824-8.458-39.603c-5.232-9.289-17.929-21.768-25.9-6.96c-6.29,11.681-2.816,32.097-0.706,44.448
		c2.119,12.441,6.168,24.514,7.566,37.038c1.403,12.526-0.219,26.117-8.18,35.883c-7.966,9.769-23.562,13.857-33.623,6.266
		c-11.415-8.614-10.339-25.632-9.759-39.922c0.691-17.13-0.979-34.355-4.95-51.038c-2.412-10.148-8.039-22.024-18.465-22.421
		c-13.043-0.497-18.334,16.502-19.016,29.54c-2.431,46.596,1.052,93.503,10.334,139.23c5.086,25.041,11.941,50.134,10.84,75.659
		c-0.002,0.05-0.007,0.101-0.009,0.152c12.121-3.471,22.241-12.962,28.677-24.018c7.254-12.495,10.509-26.909,13.315-41.116
		c1.71-8.49,3.391-17.323,8.526-24.307c10.203-14.002,31.153-15.988,47.274-9.62c6.748,2.636,12.979,6.47,19.45,9.722l0.063-59.352
		C1290.721,857.721,1287.037,855.068,1284.592,851.231z"/>
	<path style="fill:#E0AA70;" d="M848.699,798.378c-1.364-20.109-6.519-42.65,5.705-58.674c2.427-3.179,6.105-6.11,10.036-5.362
		c3.674,0.699,5.988,4.285,7.698,7.615c17.418,33.846,18.246,73.768,14.583,111.656c-1.883,19.476-4.833,38.909-7.045,58.362
		c-2.091,18.389-3.526,36.797-2.724,55.275c0.916,21.096,8.604,46.402,29.218,50.967c11.41,2.526,23.591-2.814,31.425-11.491
		c5.891-6.521,9.618-14.653,11.933-23.187c0.765-2.816,1.377-5.675,1.86-8.536c4.916-29.111-2.193-58.748-9.067-87.459
		c-8.034-33.537-15.873-67.722-13.671-102.138c0.594-9.354,2.046-18.972,6.987-26.938c4.94-7.966,14.119-13.912,23.401-12.584
		c9.442,1.352,16.409,9.523,20.969,17.905c13.34,24.536,13.52,54.051,10.314,81.793c-1.627,14.065-2.811,31.166,8.716,39.391
		c4.706,3.362,10.752,4.394,16.526,4.073c15.722-0.88,30.392-11.971,35.522-26.857c5.685-16.502,0.127-34.448-3.469-51.525
		c-3.596-17.079-4.307-37.235,8.175-49.433c7.406-7.237,20.161-2.948,27.084,4.751c6.928,7.701,9.69,18.21,11.615,28.385
		c9.247,48.835,4.354,98.373-3.106,147.862c-4.01,26.599-8.749,53.185-12.46,79.638c-1.467,10.454-2.734,21.35,0.599,31.369
		c8.058,24.246,41.89,32.344,64.058,19.635c22.119-12.684,32.88-39.426,34.022-64.908c0.002-0.051,0.007-0.101,0.009-0.152
		c1.101-25.525-5.754-50.619-10.84-75.659c-9.282-45.727-12.765-92.633-10.334-139.23c0.682-13.038,5.973-30.036,19.016-29.54
		c10.426,0.397,16.054,12.273,18.465,22.421c3.971,16.682,5.642,33.908,4.95,51.038c-0.58,14.29-1.657,31.308,9.759,39.922
		c10.061,7.591,25.657,3.503,33.623-6.266c7.961-9.766,9.583-23.357,8.18-35.883c-1.398-12.523-5.447-24.596-7.566-37.038
		c-2.109-12.351-5.583-32.767,0.706-44.448c7.971-14.808,20.668-2.329,25.9,6.96c6.631,11.779,7.615,26.402,8.458,39.603
		c0.687,10.662,1.369,21.323,2.052,31.986c0.434,6.76,0.969,13.844,4.609,19.554c2.446,3.838,6.129,6.49,10.319,8.041
		c7.327,2.712,16.238,1.986,23.04-2.148c10.69-6.497,16.4-19.169,17.583-31.62c1.189-12.456-1.496-24.916-4.161-37.138
		c-7.898-36.176-15.79-72.35-23.688-108.526c-2.651-12.154-6.275-21.81-15.089-30.716c-19.269-19.476-46.144-27.966-72.112-34.358
		c-30.188-7.432-61.203-11.544-92.161-14.066c-15.719-1.28-31.486-2.084-47.267-2.498c-0.875,5.614-1.956,11.194-3.225,16.735
		c73.574,1.815,139.902,14.705,165.055,34.257c33.988,26.416-20.044,54.97-120.682,63.773
		c-100.638,8.804-209.793-5.469-243.776-31.888c-33.983-26.417,20.068-54.972,120.711-63.776
		c17.868-1.563,36.001-2.385,53.936-2.554c1.362-5.592,2.497-11.222,3.405-16.883c-24.187,0.056-48.375,1.13-72.446,3.237
		c-78.708,6.884-134.095,23.635-153.081,43.264c-8.575,6.667-13.539,17.486-15.498,28.309c-2.197,12.176-1.208,24.663-1.257,37.036
		c-0.112,29.985-6.436,59.934-18.45,87.408c-6.938,15.864-15.62,34.852-5.949,49.215c7.084,10.527,21.653,12.445,33.682,7.843
		c4.344-1.662,8.364-4.152,11.57-7.426C847.135,834.414,849.873,815.608,848.699,798.378z"/>
	<path style="fill:#EBD3B3;" d="M1058.823,669.138c-6.65,13.944-27.24,1.761-20.692-12.095
		c6.476-13.707,11.435-27.872,14.945-42.293c-17.936,0.169-36.068,0.991-53.936,2.554c-100.643,8.804-154.694,37.359-120.711,63.776
		c33.983,26.419,143.137,40.692,243.776,31.888c100.638-8.804,154.67-37.357,120.682-63.773
		c-25.152-19.552-91.481-32.442-165.055-34.257C1073.574,633.535,1067.146,651.687,1058.823,669.138z"/>
	<path style="fill:#EFDEC5;" d="M1215.081,1240.633c-34.236,92.947-123.211,157.478-218.076,186.029
		c-49.398,14.857-101.125,21.466-149.841,38.479c-8.219,2.877-16.366,6.093-24.375,9.688l-0.102,83.223
		c0,6.541,4.005,13.215,12.458,19.788c41.632,32.385,175.386,49.88,298.664,39.062c98.285-8.592,160.283-32.558,160.317-58.302
		l0.187-170.282l0.034-31.6l0.325-297.94C1238.804,1080.383,1231.578,1195.819,1215.081,1240.633z"/>
	<path style="fill:#F7ECDF;" d="M1251.032,1341.927c-0.029-9.359-0.999-20.453-9.091-25.155
		c-11.45-6.653-24.682,5.656-30.806,17.393c-17.647,33.795-21.535,74.804-45.798,104.204
		c-25.968,31.462-69.364,42.268-110.046,45.298c-40.682,3.03-82.441,0.275-121.394,12.39c-25.315,7.871-66.465,40.356-40.185,69.164
		c17.998,19.729,70.105,19.408,93.968,21.673c82.558,7.837,166.879-2.65,244.823-31.059c5.486-2.003,11.24-4.302,14.767-8.955
		c4.131-5.449,4.287-12.833,4.268-19.668C1251.369,1465.452,1251.198,1403.688,1251.032,1341.927z"/>
	<path style="fill:#F8AE51;" d="M1045.381,485.817c-27.719-4.471-53.65-20.765-68.74-44.556
		c-20.039-31.593-20.053-74.692-0.249-106.434c11.791-18.901,29.457-33.318,47.289-46.67c17.837-13.355,36.375-26.197,50.918-43.074
		c19.381-22.487,35.454-65.696,20.048-93.992c19.104,11.403,30.514,33.398,32.141,55.59c1.627,22.19-5.652,44.378-17.223,63.381
		c-6.655,10.926-14.948,21.576-16.487,34.276c-2.505,20.716,13.861,39.06,31.537,50.153c6.095,3.822,12.536,7.216,17.851,12.065
		c6.577,6,11.167,14.139,12.906,22.872c1.822,9.145,0.551,18.675-2.036,27.635c-10.378,35.947-43.352,64.197-80.429,69.191
		c-0.684,0.092-1.372,0.12-2.058,0.197c2.54,8.179,4.86,16.357,6.821,24.62c15.737-2.277,31.513-7.223,46.687-15.282
		c34.041-18.085,59.157-47.613,68.448-80.478c6.241-22.083,4.702-47.337-12.609-64.792c-8.556-8.631-20.268-14.687-29.267-22.994
		c-12.911-11.924-19.586-28.428-17.993-44.473c1.637-16.514,11.43-31.617,16.253-47.69c9.506-31.678-1.51-66.59-26.066-91.959
		c-24.56-25.369-61.603-41.332-100.17-46.083c29.705,13.291,49.554,40.794,49.812,69.011c0.297,33.16-24.02,62.88-51.011,87.133
		c-26.992,24.253-58.119,46.102-77.213,75.15c-20.546,31.249-25.13,69.659-11.961,103.59c18.302,47.159,67.13,78.635,120.416,80.281
		c-0.531-2.173-1.05-4.349-1.649-6.515C1049.637,499.79,1047.513,492.984,1045.381,485.817z"/>
	<path style="fill:#EFDEC5;" d="M857.352,1358.433c-0.814,10.95-0.76,24.107,8.39,30.175c3.571,2.37,8,3.145,12.287,3.116
		c27.035-0.188,44.935-28.504,51.761-54.66c9.564-36.663,7.976-75.182,6.612-113.045c-0.726-20.246-1.208-41.362,7.332-59.732
		c6.987-15.033,19.347-26.74,30.256-39.225c10.904-12.487,20.959-27.147,21.579-43.712c0.619-16.568-11.986-34.46-28.551-33.864
		c-18.582,0.668-32.541,22.67-50.933,19.927c-20.365-3.037-29.978-34.667-50.397-32.019c-34.221,4.438-9.198,114.051-7.736,135.598
		C862.195,1233.381,862,1296.073,857.352,1358.433z"/>
	<path style="fill:#EFDEC5;" d="M1140.743,953.086c-1.203-0.621-2.529-1.14-3.874-1.006c-1.774,0.178-3.24,1.444-4.365,2.823
		c-5.569,6.845-5.111,16.56-6.017,25.342c-1.179,11.486-5.203,22.67-11.61,32.275c-5.174,7.754-12.117,15.089-13.023,24.365
		c-2.451,25.128,27.464,28.414,39.902,11.954c14.212-18.804,18.675-45.788,14.87-68.638
		C1154.843,969.479,1150.399,958.078,1140.743,953.086z"/>
	<path style="fill:#EFDEC5;" d="M922.015,915.398c-2.675,1.993-3.454,5.615-3.868,8.928c-1.398,11.293-0.853,23.196-5.788,33.454
		c-2.582,5.364-6.519,9.937-9.783,14.916c-6.913,10.55-8.414,28.163,7.069,31.71c15.488,3.552,24.926-12.791,28.599-25.167
		c4.999-16.855,5.072-35.138,0.209-52.032c-1.106-3.832-2.558-7.754-5.496-10.453C930.025,914.059,925.216,913.016,922.015,915.398z
		"/>
	<path style="fill:#EFDEC5;" d="M1301.805,848.461c10.753,4.188,19.24-8.672,21.861-17.257c5.014-16.438,3.372-34.806-4.487-50.092
		c-1.783-3.474-5.296-7.305-8.886-5.768c-2.719,1.162-3.387,4.692-3.308,7.644c0.253,9.452,4.102,19.527-0.21,27.944
		c-2.036,3.978-5.627,6.891-8.507,10.307C1291.398,829.386,1289.795,843.783,1301.805,848.461z"/>
	<path style="fill:#F39041;" d="M1153.337,417.063c2.587-8.96,3.859-18.49,2.036-27.635c-1.739-8.733-6.329-16.872-12.906-22.872
		c-5.315-4.85-11.757-8.243-17.851-12.065c-17.676-11.094-34.042-29.437-31.537-50.153c1.54-12.7,9.832-23.35,16.487-34.276
		c11.571-19.003,18.85-41.191,17.223-63.381c-1.627-22.192-13.038-44.187-32.141-55.59c15.406,28.297-0.667,71.505-20.048,93.992
		c-14.543,16.877-33.082,29.72-50.918,43.074c-17.832,13.352-35.498,27.768-47.289,46.67c-19.805,31.742-19.79,74.84,0.249,106.434
		c15.09,23.791,41.021,40.086,68.74,44.556c-9.283-31.222-18.692-69.325,5.345-92.78c3.752-3.659,12.058-1.308,11.328,4.689
		c-3.542,29.009-3.508,50.724,5.774,79.206c1.035,3.178,2.039,6.349,3.023,9.519c0.686-0.076,1.374-0.104,2.058-0.197
		C1109.985,481.26,1142.959,453.009,1153.337,417.063z"/>
	<path style="fill:#1C1D3B;" d="M1038.131,657.043c-6.548,13.857,14.042,26.039,20.692,12.095
		c8.323-17.451,14.75-35.604,19.008-54.201c1.269-5.541,2.351-11.121,3.225-16.735c2.958-18.99,3.617-38.356,1.678-57.84
		c-0.994-9.996-2.789-19.702-5.064-29.291c-1.961-8.264-4.281-16.441-6.821-24.62c-0.984-3.17-1.988-6.341-3.023-9.519
		c-9.281-28.482-9.315-50.197-5.774-79.206c0.731-5.997-7.576-8.348-11.328-4.689c-24.037,23.455-14.628,61.559-5.345,92.78
		c2.132,7.167,4.256,13.973,5.968,20.155c0.599,2.166,1.118,4.341,1.649,6.515c6.921,28.317,8.01,57.206,3.483,85.381
		c-0.908,5.661-2.043,11.291-3.405,16.883C1049.566,629.171,1044.608,643.336,1038.131,657.043z"/>
	<path style="fill:#FBC589;" d="M754.122,1778.243c3.498,2.687,7.021,5.366,10.592,7.978c7.722,5.642,15.688,10.955,24.214,15.288
		c10.524,5.347,27.99,13.601,39.001,5.111c13.242-10.214-6.86-27.057-13.749-34.126c-14.699-15.091-29.072-30.407-41.374-47.552
		c-12.2-17.006-23.181-34.911-36.526-51.074c-10.373-12.563-22.919-24.064-37.613-31.335c-11.411-5.645-34.027-12.511-43.883-0.368
		c-3.362,4.139-3.888,9.917-3.298,15.216c1.783,16.005,12.015,30.584,21.749,42.904
		C696.802,1730.101,724.051,1755.146,754.122,1778.243z"/>
</g>
</svg>
