<?xml version="1.0" encoding="utf-8"?>
<!-- Generator: Adobe Illustrator 27.5.0, SVG Export Plug-In . SVG Version: 6.00 Build 0)  -->
<svg width="560px" height="454px" version="1.1" xmlns="http://www.w3.org/2000/svg" xmlns:xlink="http://www.w3.org/1999/xlink" x="0px" y="0px"
	 viewBox="0 0 500 500" style="enable-background:new 0 0 500 500;" xml:space="preserve">
<g id="Floor">
	<path id="Floor_1_" style="fill:#F5F5F5;" d="M414.256,451.11c90.716-52.375,90.716-137.292,0-189.666
		c-90.716-52.374-237.796-52.374-328.512,0c-90.716,52.374-90.716,137.291,0,189.666C176.46,503.486,323.54,503.486,414.256,451.11z
		"/>
</g>
<g id="Icons_1_">
	<g id="Icons">
		<g id="Plus_3_">
			<polygon id="Plus_2_" style="fill:#E0E0E0;" points="382.325,89.484 381.356,83.703 375.574,84.673 376.544,90.454 
				370.763,91.424 371.733,97.205 377.514,96.235 378.483,102.017 384.265,101.047 383.295,95.265 389.077,94.296 388.107,88.514 
							"/>
			<polygon id="Plus_6_" style="fill:#E0E0E0;" points="387.551,219.738 389.011,214.061 383.333,212.601 381.874,218.278 
				376.196,216.819 374.736,222.496 380.414,223.956 378.954,229.633 384.632,231.093 386.091,225.415 391.769,226.875 
				393.228,221.198 			"/>
			<polygon id="Plus_5_" style="fill:#E0E0E0;" points="286.125,53.457 287.941,47.883 282.367,46.067 280.551,51.641 
				274.977,49.826 273.162,55.399 278.736,57.215 276.92,62.789 282.494,64.604 284.309,59.031 289.883,60.846 291.699,55.272 			
				"/>
			<polygon id="Plus_1_" style="fill:#E0E0E0;" points="240.882,126.713 241.852,120.931 247.633,121.901 246.664,127.683 
				252.445,128.652 251.475,134.434 245.694,133.464 244.724,139.245 238.943,138.275 239.913,132.494 234.131,131.524 
				235.101,125.743 			"/>
			<polygon id="Plus_4_" style="fill:#E0E0E0;" points="129.993,50.676 128.393,45.036 134.032,43.436 135.632,49.076 
				141.272,47.476 142.872,53.115 137.232,54.715 138.832,60.355 133.193,61.955 131.593,56.315 125.953,57.915 124.353,52.276 			
				"/>
			<polygon id="Plus" style="fill:#E0E0E0;" points="40.123,248.69 38.298,243.12 43.869,241.295 45.694,246.866 51.265,245.041 
				53.089,250.612 47.518,252.437 49.343,258.008 43.772,259.832 41.947,254.261 36.376,256.086 34.552,250.515 			"/>
		</g>
		<g id="Dots">
			<path id="Dot_4_" style="fill:#EBEBEB;" d="M312.038,111.966c0-1.63,1.322-2.952,2.952-2.952c1.631,0,2.952,1.322,2.952,2.952
				c0,1.631-1.322,2.952-2.952,2.952C313.36,114.919,312.038,113.597,312.038,111.966z"/>
			<path id="Dot_3_" style="fill:#EBEBEB;" d="M194.238,81.478c0-1.631,1.322-2.952,2.952-2.952c1.631,0,2.952,1.322,2.952,2.952
				c0,1.63-1.322,2.952-2.952,2.952C195.56,84.431,194.238,83.109,194.238,81.478z"/>
			<path id="Dot_2_" style="fill:#EBEBEB;" d="M39.881,198.739c0-1.63,1.322-2.952,2.952-2.952s2.952,1.322,2.952,2.952
				c0,1.63-1.322,2.952-2.952,2.952S39.881,200.37,39.881,198.739z"/>
			<path id="Dot_1_" style="fill:#EBEBEB;" d="M214.549,177.633c0-1.63,1.322-2.952,2.952-2.952c1.631,0,2.952,1.322,2.952,2.952
				c0,1.63-1.322,2.952-2.952,2.952C215.871,180.585,214.549,179.263,214.549,177.633z"/>
			<path id="Dot" style="fill:#EBEBEB;" d="M360.782,36.919c0-1.631,1.322-2.952,2.952-2.952c1.63,0,2.952,1.322,2.952,2.952
				s-1.322,2.952-2.952,2.952C362.104,39.872,360.782,38.55,360.782,36.919z"/>
			<path id="Dot_6_" style="fill:#EBEBEB;" d="M43.943,60.371c0-1.631,1.322-2.952,2.952-2.952c1.63,0,2.952,1.322,2.952,2.952
				c0,1.63-1.322,2.952-2.952,2.952C45.264,63.323,43.943,62.002,43.943,60.371z"/>
			<path id="Dot_5_" style="fill:#EBEBEB;" d="M450.147,65.062c0-1.631,1.322-2.952,2.952-2.952c1.63,0,2.952,1.322,2.952,2.952
				s-1.322,2.952-2.952,2.952C451.469,68.015,450.147,66.693,450.147,65.062z"/>
			<path id="Dot_8_" style="fill:#EBEBEB;" d="M470.458,179.978c0-1.63,1.322-2.952,2.952-2.952c1.63,0,2.952,1.322,2.952,2.952
				c0,1.631-1.322,2.952-2.952,2.952C471.78,182.93,470.458,181.609,470.458,179.978z"/>
			<path id="Dot_9_" style="fill:#EBEBEB;" d="M461.224,266.751c0-1.63,1.322-2.952,2.952-2.952c1.63,0,2.952,1.322,2.952,2.952
				s-1.322,2.952-2.952,2.952C462.546,269.704,461.224,268.382,461.224,266.751z"/>
			<path id="Dot_7_" style="fill:#EBEBEB;" d="M389.217,165.907c0-1.63,1.322-2.952,2.952-2.952c1.63,0,2.952,1.322,2.952,2.952
				c0,1.631-1.322,2.952-2.952,2.952C390.539,168.859,389.217,167.537,389.217,165.907z"/>
		</g>
	</g>
</g>
<g id="Shadows">
	<path id="Shadow_6_" style="fill:#E0E0E0;" d="M387.151,291.211c0-0.133-0.025-0.265-0.033-0.398
		c-0.001-0.023-0.004-0.046-0.006-0.069c-0.021-0.288-0.056-0.574-0.116-0.861c-0.013-0.061-0.031-0.122-0.046-0.183
		c-0.011-0.047-0.023-0.093-0.035-0.14c-0.083-0.319-0.19-0.636-0.321-0.951c-0.028-0.069-0.056-0.137-0.087-0.205
		c-0.13-0.289-0.284-0.575-0.455-0.858c-0.052-0.087-0.101-0.173-0.157-0.259c-0.171-0.262-0.366-0.519-0.573-0.775
		c-0.079-0.098-0.152-0.197-0.236-0.294c-0.188-0.216-0.399-0.426-0.613-0.635c-0.025-0.024-0.049-0.048-0.074-0.072
		c-0.106-0.102-0.202-0.206-0.314-0.307c-0.26-0.233-0.549-0.457-0.842-0.681c-0.118-0.09-0.223-0.184-0.347-0.272
		c-0.427-0.306-0.883-0.602-1.375-0.886l-9.585-5.534l-1.483-0.856c-0.469-0.271-0.957-0.525-1.46-0.762
		c-7.55-3.555-18.686-3.301-25.724,0.762c-14.002,8.084-36.829,21.264-58.854,33.98c-0.759,0.438-1.518,0.876-2.275,1.313
		c-3.029,1.749-6.036,3.485-8.996,5.194c-1.48,0.854-2.948,1.702-4.402,2.542c-12.355,7.133-23.635,13.646-31.901,18.418
		c-5.349,3.088-9.435,5.447-11.734,6.774c-1.063,0.614-2.122,1.277-3.18,1.984c-11.109,7.431-22.048,19.778-34.555,31.191
		c-2.978,2.717-6.045,5.382-9.224,7.914c-2.544,2.026-5.159,3.967-7.858,5.784c-5.398,3.633-10.515,7.073-15.154,10.19
		c-3.479,2.337-6.69,4.493-9.548,6.411c-8.21,5.51-13.508,9.058-13.945,9.351l-20.574,11.885c0,0-0.236,0.143-0.24,0.145
		c-1.442,0.831-2.484,2.263-2.805,3.952c-0.001-0.009-0.004-0.018-0.005-0.027c-0.012,0.06-0.017,0.121-0.027,0.181
		c-0.013,0.077-0.025,0.155-0.034,0.233c-0.028,0.227-0.047,0.457-0.047,0.693c0,3.21,2.602,5.811,5.811,5.811
		c0.861,0,1.676-0.19,2.411-0.525l0.272-0.157l20.56-11.876l0.042-0.021c0.018-0.009,0.031-0.028,0.048-0.038l0.011,0.007
		c0,0,19.935-9.939,45.106-22.406c25.171-12.467,64.187-14.06,81.187-23.876c11.87-6.853,71.395-41.22,106.241-61.338v0.007
		c4.415-2.553,8.444-4.886,11.917-6.885c0.47-0.273,0.911-0.556,1.323-0.848c2.874-2.034,4.311-4.519,4.311-7.004
		C387.15,303.299,387.151,293.847,387.151,291.211z"/>
	<path id="Shadow_18_" style="fill:#E0E0E0;" d="M461.818,320.805c-0.014-0.156-0.037-0.309-0.057-0.463
		c-0.034-0.272-0.074-0.542-0.124-0.809c-0.035-0.191-0.074-0.381-0.117-0.569c-0.048-0.212-0.104-0.42-0.162-0.629
		c-0.06-0.218-0.119-0.436-0.189-0.65c-0.035-0.106-0.077-0.208-0.115-0.313c-0.333-0.942-0.761-1.836-1.275-2.675
		c-0.016-0.026-0.031-0.051-0.047-0.077c-2.518-4.057-6.999-6.767-12.125-6.767c-2.114,0-4.117,0.466-5.922,1.291l-0.668,0.385
		L247.348,421.34v0c0,0-2.534,1.365-5.104,2.849c-6.758,3.902-5.808,13.089-11.421,16.36c-3.153,1.838-4.666,2.689-8.742,5.048
		l-29.039,16.784c0,0-0.236,0.143-0.24,0.145c-1.442,0.831-2.484,2.262-2.805,3.951c-0.001-0.009-0.004-0.018-0.005-0.027
		c-0.012,0.06-0.017,0.121-0.027,0.181c-0.012,0.077-0.025,0.154-0.034,0.233c-0.028,0.227-0.047,0.457-0.047,0.693
		c0,3.21,2.602,5.811,5.811,5.811c0.861,0,1.676-0.19,2.411-0.525l0.272-0.157c0,0,38.598-22.285,38.993-22.513
		c1.185-0.684,3.427-0.598,6.157-0.449c0.91,0.05,1.874,0.106,2.872,0.144c3.99,0.15,8.513-0.007,12.222-2.149l195.505-112.875
		c0,0,0.145-0.088,0.291-0.176c0.146-0.088,0.294-0.177,0.298-0.18c1.069-0.616,2.052-1.366,2.925-2.228
		c0.436-0.43,0.845-0.889,1.223-1.372c0.378-0.483,0.726-0.991,1.04-1.521c1.257-2.121,1.98-4.595,1.98-7.241l0,0
		C461.885,321.681,461.859,321.241,461.818,320.805z"/>
	<path id="Shadow_5_" style="fill:#E0E0E0;" d="M111.085,388.238l-67.309-38.861c-7.174-4.142-7.174-10.858,0-15l51.76-29.884
		c7.174-4.142,18.806-4.142,25.981,0l67.309,38.861c7.174,4.142,7.174,10.858,0,15l-51.76,29.884
		C129.891,392.38,118.259,392.38,111.085,388.238z"/>
</g>
<g id="Mercury_Thermometer_1_">
	<g id="Mercury_Thermometer">
		<g>
			<path style="fill:#BA68C8;" d="M442.751,299.827c-2.114,0-4.117,0.466-5.922,1.291l-0.668,0.385L242.489,413.314v0
				c0,0-2.534,1.365-5.104,2.849c-6.758,3.901-5.808,13.089-11.421,16.36c-3.153,1.838-4.666,2.689-8.742,5.048l5.357,10.307
				c4.085-2.353,6.773-3.905,9.934-5.73c3.161-1.825,13.833,1.829,21.251-2.454L449.268,326.82c0,0,0.581-0.35,0.589-0.356
				c4.278-2.466,7.169-7.069,7.169-12.361C457.026,306.218,450.635,299.827,442.751,299.827z"/>
			<path style="opacity:0.8;fill:#FFFFFF;" d="M442.751,299.827c-2.114,0-4.117,0.466-5.922,1.291l-0.668,0.385L242.489,413.314v0
				c0,0-2.534,1.365-5.104,2.849c-6.758,3.901-5.808,13.089-11.421,16.36c-3.153,1.838-4.666,2.689-8.742,5.048l5.357,10.307
				c4.085-2.353,6.773-3.905,9.934-5.73c3.161-1.825,13.833,1.829,21.251-2.454L449.268,326.82c0,0,0.581-0.35,0.589-0.356
				c4.278-2.466,7.169-7.069,7.169-12.361C457.026,306.218,450.635,299.827,442.751,299.827z"/>
		</g>
		<g>
			<g>
				<polygon style="fill:#E0E0E0;" points="451.177,318.851 434.177,309.036 238.671,421.91 238.671,423.291 255.672,433.106 
					451.177,320.231 				"/>
				<polygon style="opacity:0.1;" points="238.671,421.91 255.672,431.726 255.672,433.106 238.671,423.291 				"/>
				<polygon style="fill:#FAFAFA;" points="238.671,421.91 255.672,431.726 451.177,318.851 434.177,309.036 				"/>
			</g>
			<g>
				<path style="fill:#455A64;" d="M360.599,361.18l-4.352-2.513c0,0,0,0-0.001,0l-2.447-1.413
					c-0.124-0.072-0.285-0.031-0.358,0.096c-0.072,0.125-0.029,0.285,0.096,0.358l6.801,3.926l0.424,0.247c0,0,0.001,0,0.001,0
					l2.447,1.413c0.041,0.023,0.086,0.035,0.131,0.035c0.09,0,0.178-0.047,0.227-0.131c0.072-0.125,0.029-0.285-0.096-0.358
					L360.599,361.18z M269.961,413.509l-4.352-2.513c0,0-0.001,0-0.001,0l-2.447-1.413c-0.123-0.072-0.285-0.03-0.358,0.096
					c-0.072,0.125-0.029,0.285,0.096,0.358l6.801,3.926l0.424,0.247c0,0,0.001,0,0.001,0l2.447,1.413
					c0.041,0.023,0.086,0.035,0.131,0.035c0.09,0,0.178-0.047,0.227-0.131c0.072-0.125,0.029-0.285-0.096-0.358L269.961,413.509z
					 M335.002,372.57c-0.124-0.07-0.285-0.031-0.358,0.096c-0.072,0.125-0.029,0.285,0.096,0.358l2.447,1.413
					c0,0,0,0.001,0.001,0.001l0.913,0.524c0,0,0.001,0,0.001,0l2.447,1.413c0.041,0.023,0.086,0.035,0.131,0.035
					c0.09,0,0.178-0.047,0.227-0.131c0.072-0.125,0.029-0.285-0.096-0.358L335.002,372.57z M315.28,387.344l-4.352-2.513
					c0,0,0,0-0.001,0l-2.447-1.413c-0.124-0.07-0.285-0.031-0.358,0.096c-0.072,0.125-0.029,0.285,0.096,0.358l6.8,3.926
					l0.424,0.247c0,0,0.001,0,0.001,0l2.447,1.413c0.041,0.023,0.086,0.035,0.131,0.035c0.09,0,0.178-0.047,0.227-0.131
					c0.072-0.125,0.029-0.285-0.096-0.358L315.28,387.344z M406.342,335.262c0,0,0-0.001-0.001-0.001l-4.776-2.759c0,0,0,0-0.001,0
					l-2.447-1.413c-0.124-0.072-0.284-0.03-0.358,0.096c-0.072,0.125-0.029,0.285,0.096,0.358l9.672,5.586
					c0.041,0.023,0.086,0.035,0.131,0.035c0.09,0,0.178-0.047,0.227-0.131c0.072-0.125,0.029-0.285-0.096-0.358L406.342,335.262z
					 M289.684,398.735c-0.124-0.072-0.285-0.03-0.358,0.096c-0.072,0.125-0.029,0.285,0.096,0.358l2.447,1.413
					c0,0,0,0.001,0.001,0.001l4.841,2.79c0,0,0.001,0,0.001,0l2.447,1.413c0.041,0.023,0.086,0.035,0.131,0.035
					c0.09,0,0.178-0.047,0.227-0.131c0.072-0.125,0.029-0.285-0.096-0.358L289.684,398.735z M435.377,325.858l-6.801-3.926
					l-0.489-0.278c0,0-0.001,0-0.001,0l-2.447-1.413c-0.124-0.072-0.284-0.03-0.358,0.096c-0.072,0.125-0.029,0.285,0.096,0.358
					l2.938,1.691l4.352,2.513c0,0,0.001,0,0.001,0l2.447,1.413c0.041,0.023,0.086,0.035,0.131,0.035c0.09,0,0.178-0.047,0.227-0.131
					C435.544,326.091,435.501,325.931,435.377,325.858z M383.259,348.097l-0.49-0.278c0,0-0.001,0-0.001,0l-2.447-1.413
					c-0.124-0.072-0.284-0.031-0.358,0.096c-0.072,0.125-0.029,0.285,0.096,0.358l2.938,1.691l4.352,2.513c0,0,0.001,0,0.001,0
					l2.447,1.413c0.041,0.023,0.086,0.035,0.131,0.035c0.09,0,0.178-0.047,0.227-0.131c0.072-0.125,0.029-0.285-0.096-0.358
					L383.259,348.097z M254.28,417.537c-0.124-0.072-0.284-0.03-0.358,0.096c-0.072,0.125-0.029,0.285,0.096,0.358l8.704,5.025
					c0.041,0.023,0.086,0.035,0.131,0.035c0.09,0,0.178-0.047,0.227-0.131c0.071-0.125,0.029-0.285-0.096-0.358L254.28,417.537z
					 M276.939,404.454c-0.124-0.072-0.284-0.03-0.358,0.096c-0.071,0.125-0.029,0.285,0.096,0.358l8.705,5.026
					c0.041,0.023,0.086,0.035,0.131,0.035c0.09,0,0.178-0.047,0.227-0.131c0.072-0.125,0.029-0.285-0.096-0.358L276.939,404.454z
					 M390.236,339.043c-0.124-0.072-0.285-0.03-0.358,0.096c-0.072,0.125-0.029,0.285,0.096,0.358l8.705,5.025
					c0.041,0.023,0.086,0.035,0.131,0.035c0.09,0,0.178-0.047,0.227-0.131c0.072-0.125,0.029-0.285-0.096-0.358L390.236,339.043z
					 M412.895,325.96c-0.124-0.072-0.285-0.03-0.358,0.096c-0.072,0.125-0.029,0.285,0.096,0.358l8.704,5.026
					c0.041,0.024,0.086,0.035,0.131,0.035c0.09,0,0.178-0.047,0.227-0.131c0.072-0.125,0.029-0.285-0.096-0.358L412.895,325.96z
					 M367.576,352.125c-0.123-0.072-0.285-0.031-0.358,0.096c-0.072,0.125-0.029,0.285,0.096,0.358l8.706,5.026
					c0.041,0.023,0.086,0.035,0.131,0.035c0.09,0,0.178-0.047,0.227-0.131c0.072-0.125,0.029-0.285-0.096-0.358L367.576,352.125z
					 M344.917,365.208c-0.123-0.071-0.285-0.031-0.358,0.096c-0.072,0.125-0.029,0.285,0.096,0.358l8.705,5.025
					c0.041,0.023,0.086,0.035,0.131,0.035c0.09,0,0.178-0.047,0.227-0.131c0.072-0.125,0.029-0.285-0.096-0.358L344.917,365.208z
					 M299.599,391.373c-0.123-0.071-0.285-0.031-0.358,0.096c-0.072,0.125-0.029,0.285,0.096,0.358l8.704,5.025
					c0.041,0.023,0.086,0.035,0.131,0.035c0.09,0,0.178-0.047,0.227-0.131c0.072-0.125,0.029-0.285-0.096-0.358L299.599,391.373z
					 M322.258,378.29c-0.123-0.07-0.285-0.031-0.358,0.096c-0.071,0.125-0.029,0.285,0.096,0.358l8.705,5.026
					c0.041,0.023,0.086,0.035,0.131,0.035c0.09,0,0.178-0.047,0.227-0.131c0.072-0.125,0.029-0.285-0.096-0.358L322.258,378.29z"/>
				<g>
					<path d="M275.761,417.411c-0.147-0.085-0.301-0.146-0.462-0.182c-0.159-0.036-0.32-0.049-0.481-0.04
						c-0.161,0.009-0.323,0.041-0.484,0.093c-0.16,0.052-0.319,0.122-0.47,0.208l-0.089,0.051l-0.159-1.174
						c-0.003-0.012-0.007-0.025-0.013-0.036c-0.005-0.012-0.017-0.023-0.036-0.034l-0.066-0.039
						c-0.067-0.039-0.135-0.039-0.203,0.001l-1.656,0.956c-0.065,0.038-0.064,0.076,0.003,0.115l0.066,0.039
						c0.065,0.038,0.131,0.038,0.196,0l1.342-0.775l0.163,1.151c0.004,0.015,0.009,0.03,0.018,0.044
						c0.009,0.013,0.026,0.026,0.049,0.041l0.066,0.038c0.065,0.038,0.131,0.039,0.196,0.001l0.39-0.226
						c0.228-0.132,0.455-0.208,0.682-0.23c0.226-0.021,0.45,0.032,0.668,0.157c0.11,0.063,0.187,0.131,0.231,0.2
						c0.045,0.07,0.06,0.141,0.045,0.214c-0.014,0.072-0.056,0.142-0.125,0.212c-0.067,0.07-0.159,0.138-0.275,0.204
						c-0.081,0.047-0.167,0.09-0.265,0.13c-0.096,0.04-0.199,0.072-0.307,0.093c-0.109,0.02-0.22,0.03-0.335,0.026
						c-0.115-0.004-0.235-0.026-0.356-0.069c-0.056-0.018-0.101-0.026-0.136-0.018c-0.034,0.005-0.062,0.015-0.086,0.029
						l-0.062,0.037c-0.027,0.014-0.042,0.032-0.044,0.051c-0.003,0.018,0.008,0.036,0.035,0.051
						c0.101,0.054,0.221,0.094,0.361,0.117c0.139,0.025,0.289,0.031,0.45,0.019c0.161-0.011,0.329-0.042,0.502-0.093
						c0.175-0.05,0.342-0.123,0.509-0.219c0.15-0.087,0.271-0.18,0.361-0.279c0.088-0.1,0.14-0.199,0.157-0.299
						c0.016-0.1-0.006-0.198-0.067-0.295C276.014,417.587,275.91,417.496,275.761,417.411z M278.556,416.189
						c-0.073-0.106-0.196-0.211-0.37-0.311c-0.163-0.094-0.335-0.16-0.514-0.199c-0.179-0.038-0.359-0.054-0.539-0.047
						c-0.181,0.006-0.358,0.035-0.53,0.086c-0.174,0.05-0.335,0.118-0.483,0.203c-0.165,0.096-0.275,0.182-0.328,0.259
						c-0.053,0.078-0.084,0.131-0.092,0.159l-0.911-0.634l1.274-0.736c0.065-0.037,0.065-0.076,0-0.112l-0.07-0.041
						c-0.064-0.038-0.13-0.038-0.195,0l-1.448,0.836c-0.059,0.034-0.057,0.073,0.004,0.115l1.319,0.914
						c0.023,0.017,0.055,0.026,0.095,0.025c0.041,0,0.075-0.008,0.101-0.024l0.08-0.046c0.048-0.028,0.076-0.06,0.084-0.098
						c0.008-0.038,0.021-0.08,0.038-0.127c0.016-0.047,0.045-0.099,0.087-0.155c0.042-0.056,0.118-0.117,0.231-0.182
						c0.109-0.063,0.229-0.113,0.359-0.15c0.129-0.037,0.26-0.058,0.391-0.063c0.134-0.004,0.267,0.007,0.397,0.035
						c0.133,0.029,0.255,0.076,0.372,0.143c0.124,0.072,0.214,0.147,0.269,0.227c0.054,0.079,0.079,0.158,0.073,0.237
						c-0.006,0.079-0.039,0.155-0.102,0.23c-0.062,0.076-0.147,0.145-0.258,0.209c-0.08,0.046-0.17,0.086-0.267,0.12
						c-0.097,0.035-0.2,0.058-0.311,0.072c-0.109,0.014-0.223,0.015-0.34,0.004c-0.116-0.011-0.236-0.038-0.357-0.081
						c-0.056-0.018-0.1-0.026-0.132-0.022c-0.031,0.005-0.058,0.013-0.082,0.028l-0.084,0.049c-0.027,0.014-0.043,0.033-0.046,0.051
						c-0.002,0.018,0.011,0.035,0.042,0.049c0.106,0.057,0.232,0.101,0.376,0.131c0.145,0.029,0.299,0.041,0.462,0.035
						c0.163-0.004,0.33-0.03,0.503-0.073c0.171-0.045,0.338-0.115,0.501-0.208c0.148-0.085,0.267-0.178,0.354-0.278
						c0.088-0.1,0.136-0.202,0.145-0.309C278.66,416.402,278.629,416.296,278.556,416.189z"/>
					<path d="M287.491,398.05c-0.147-0.086-0.301-0.146-0.462-0.182c-0.159-0.036-0.32-0.049-0.481-0.04
						c-0.161,0.009-0.323,0.04-0.484,0.092c-0.16,0.052-0.319,0.122-0.469,0.208l-0.09,0.052l-0.159-1.174
						c-0.003-0.012-0.007-0.025-0.013-0.037c-0.005-0.011-0.017-0.023-0.036-0.034l-0.066-0.038c-0.068-0.04-0.135-0.039-0.203,0
						l-1.656,0.956c-0.065,0.038-0.064,0.077,0.003,0.116l0.067,0.039c0.065,0.037,0.13,0.038,0.195,0l1.342-0.775l0.163,1.151
						c0.004,0.016,0.009,0.031,0.018,0.044c0.009,0.014,0.026,0.027,0.049,0.042l0.066,0.038c0.065,0.038,0.131,0.038,0.196,0
						l0.391-0.226c0.227-0.131,0.454-0.208,0.681-0.229c0.226-0.022,0.449,0.031,0.668,0.157c0.11,0.063,0.187,0.13,0.231,0.2
						c0.045,0.069,0.06,0.141,0.045,0.212c-0.014,0.072-0.056,0.143-0.125,0.213c-0.067,0.07-0.159,0.139-0.275,0.205
						c-0.081,0.046-0.168,0.09-0.265,0.13c-0.096,0.04-0.198,0.07-0.305,0.092c-0.109,0.021-0.221,0.031-0.336,0.028
						c-0.115-0.004-0.235-0.028-0.355-0.069c-0.056-0.019-0.101-0.026-0.135-0.019c-0.035,0.006-0.063,0.016-0.087,0.03
						l-0.062,0.036c-0.027,0.015-0.041,0.033-0.044,0.051c-0.003,0.018,0.008,0.036,0.035,0.051
						c0.101,0.055,0.221,0.094,0.361,0.118c0.139,0.023,0.289,0.031,0.45,0.018c0.161-0.011,0.329-0.041,0.502-0.092
						c0.175-0.05,0.342-0.124,0.509-0.219c0.15-0.088,0.271-0.181,0.361-0.28c0.088-0.099,0.14-0.198,0.157-0.298
						c0.016-0.1-0.006-0.198-0.067-0.295C287.744,398.227,287.64,398.136,287.491,398.05z M290.315,396.724
						c-0.08-0.098-0.186-0.187-0.319-0.264c-0.134-0.077-0.286-0.138-0.458-0.184c-0.172-0.047-0.352-0.073-0.539-0.077
						c-0.189-0.004-0.38,0.015-0.572,0.06c-0.191,0.045-0.377,0.118-0.555,0.221c-0.051,0.029-0.099,0.061-0.149,0.096
						c-0.048,0.035-0.087,0.068-0.117,0.098l-0.276-0.928c0.001-0.006-0.002-0.014-0.006-0.021
						c-0.005-0.008-0.013-0.015-0.029-0.025c-0.027-0.015-0.057-0.023-0.094-0.025c-0.035-0.001-0.065,0.005-0.092,0.02
						l-0.085,0.049c-0.041,0.023-0.06,0.047-0.055,0.07c0.003,0.022,0.006,0.043,0.006,0.06l0.354,1.215
						c0.009,0.036,0.027,0.079,0.05,0.129c0.022,0.049,0.053,0.102,0.09,0.157c0.037,0.055,0.086,0.111,0.148,0.17
						c0.06,0.057,0.134,0.11,0.22,0.16c0.133,0.077,0.285,0.138,0.457,0.184c0.172,0.046,0.35,0.072,0.539,0.076
						c0.188,0.004,0.379-0.015,0.573-0.058c0.194-0.044,0.379-0.118,0.557-0.22c0.177-0.102,0.306-0.21,0.38-0.322
						c0.076-0.111,0.109-0.222,0.102-0.331C290.439,396.927,290.395,396.824,290.315,396.724z M289.947,397.332
						c-0.062,0.076-0.145,0.143-0.248,0.202c-0.104,0.06-0.222,0.108-0.35,0.144c-0.131,0.036-0.266,0.056-0.406,0.061
						c-0.138,0.006-0.279-0.007-0.422-0.039c-0.141-0.03-0.276-0.082-0.404-0.155c-0.128-0.073-0.217-0.151-0.269-0.233
						c-0.052-0.081-0.073-0.161-0.064-0.242c0.009-0.08,0.045-0.157,0.107-0.233c0.061-0.075,0.144-0.143,0.248-0.203
						c0.103-0.059,0.221-0.107,0.35-0.143c0.131-0.036,0.266-0.056,0.405-0.061c0.139-0.005,0.278,0.007,0.42,0.037
						c0.14,0.031,0.274,0.082,0.402,0.155c0.128,0.074,0.218,0.151,0.271,0.233c0.053,0.083,0.077,0.164,0.066,0.244
						C290.045,397.179,290.009,397.257,289.947,397.332z"/>
					<path d="M321.268,391.137c-0.147-0.085-0.3-0.145-0.462-0.182c-0.158-0.035-0.319-0.049-0.481-0.039
						c-0.16,0.009-0.323,0.04-0.484,0.092c-0.16,0.052-0.318,0.122-0.469,0.208l-0.089,0.051l-0.159-1.174
						c-0.003-0.012-0.007-0.024-0.013-0.036c-0.006-0.012-0.017-0.023-0.036-0.034l-0.066-0.038c-0.068-0.04-0.135-0.039-0.203,0
						l-1.656,0.956c-0.065,0.038-0.064,0.076,0.003,0.115l0.066,0.038c0.065,0.038,0.131,0.038,0.196,0l1.341-0.773l0.165,1.151
						c0.003,0.015,0.009,0.031,0.017,0.044c0.009,0.014,0.027,0.028,0.05,0.041l0.066,0.039c0.065,0.038,0.131,0.038,0.196,0
						l0.39-0.226c0.228-0.132,0.455-0.208,0.682-0.23c0.226-0.021,0.449,0.032,0.667,0.158c0.11,0.063,0.188,0.13,0.232,0.199
						c0.044,0.07,0.059,0.141,0.044,0.214c-0.014,0.071-0.055,0.143-0.124,0.212c-0.068,0.07-0.16,0.138-0.275,0.205
						c-0.081,0.046-0.167,0.09-0.266,0.129c-0.096,0.041-0.198,0.072-0.305,0.093c-0.109,0.021-0.22,0.03-0.335,0.028
						c-0.115-0.004-0.235-0.028-0.355-0.069c-0.056-0.019-0.101-0.026-0.136-0.019c-0.035,0.005-0.062,0.015-0.086,0.03
						l-0.062,0.036c-0.027,0.015-0.042,0.032-0.044,0.051c-0.004,0.018,0.008,0.036,0.035,0.051c0.1,0.054,0.221,0.094,0.361,0.118
						c0.138,0.023,0.289,0.03,0.45,0.018s0.329-0.042,0.502-0.092c0.174-0.05,0.342-0.124,0.509-0.22
						c0.15-0.087,0.271-0.18,0.36-0.279c0.089-0.099,0.141-0.199,0.158-0.298c0.015-0.1-0.006-0.199-0.068-0.295
						C321.521,391.314,321.417,391.222,321.268,391.137z M323.152,390.937l-1.542-2.188c-0.017-0.023-0.036-0.044-0.053-0.059
						c-0.017-0.015-0.044-0.033-0.081-0.053l-0.066-0.039c-0.068-0.039-0.135-0.039-0.203,0l-1.714,0.99
						c-0.065,0.038-0.064,0.076,0.003,0.116l0.066,0.038c0.065,0.038,0.131,0.038,0.196,0.001l1.514-0.875l1.563,2.22
						c0.011,0.013,0.022,0.023,0.032,0.029c0.027,0.015,0.057,0.023,0.093,0.025c0.036,0.002,0.066-0.004,0.093-0.019l0.093-0.054
						c0.033-0.02,0.045-0.04,0.036-0.064C323.174,390.98,323.163,390.958,323.152,390.937z"/>
					<path d="M332.73,371.931c-0.147-0.086-0.302-0.146-0.462-0.182c-0.159-0.036-0.32-0.049-0.481-0.04
						c-0.161,0.009-0.324,0.04-0.484,0.092c-0.16,0.053-0.319,0.122-0.47,0.208l-0.089,0.052l-0.159-1.174
						c-0.003-0.012-0.007-0.025-0.013-0.037c-0.005-0.011-0.017-0.022-0.036-0.033l-0.066-0.039c-0.068-0.039-0.135-0.039-0.203,0
						l-1.656,0.956c-0.065,0.038-0.064,0.077,0.003,0.115l0.066,0.039c0.065,0.038,0.131,0.038,0.196,0l1.342-0.775l0.164,1.151
						c0.004,0.015,0.009,0.03,0.018,0.043c0.009,0.014,0.026,0.028,0.049,0.042l0.066,0.038c0.065,0.038,0.131,0.038,0.196,0
						l0.39-0.225c0.228-0.132,0.455-0.208,0.682-0.23c0.226-0.021,0.45,0.032,0.668,0.157c0.11,0.063,0.187,0.13,0.231,0.2
						c0.045,0.069,0.06,0.141,0.045,0.212c-0.014,0.073-0.056,0.143-0.125,0.214c-0.067,0.07-0.159,0.138-0.275,0.204
						c-0.081,0.046-0.167,0.09-0.265,0.13c-0.096,0.04-0.199,0.07-0.307,0.092c-0.109,0.021-0.22,0.031-0.335,0.028
						c-0.115-0.004-0.235-0.026-0.355-0.069c-0.056-0.018-0.101-0.026-0.136-0.019c-0.034,0.006-0.062,0.016-0.086,0.03
						l-0.062,0.036c-0.027,0.015-0.042,0.033-0.044,0.051c-0.003,0.018,0.008,0.036,0.035,0.051
						c0.101,0.055,0.221,0.095,0.361,0.118c0.139,0.023,0.289,0.031,0.45,0.019c0.161-0.012,0.329-0.042,0.502-0.093
						c0.175-0.05,0.342-0.124,0.509-0.219c0.15-0.088,0.271-0.181,0.361-0.28c0.088-0.099,0.14-0.198,0.157-0.298
						c0.016-0.1-0.006-0.198-0.068-0.295C332.983,372.108,332.879,372.017,332.73,371.931z M335.748,370.651
						c-0.059-0.101-0.161-0.193-0.309-0.279c-0.19-0.109-0.395-0.175-0.62-0.198c-0.224-0.023-0.447-0.012-0.667,0.035
						c0.049-0.108,0.054-0.215,0.014-0.32c-0.04-0.105-0.139-0.203-0.299-0.296c-0.134-0.077-0.277-0.13-0.431-0.158
						c-0.153-0.03-0.31-0.038-0.471-0.025c-0.159,0.011-0.317,0.043-0.472,0.093c-0.155,0.051-0.302,0.115-0.437,0.194
						c-0.14,0.081-0.251,0.165-0.338,0.253c-0.085,0.089-0.139,0.18-0.161,0.272c-0.019,0.093-0.004,0.183,0.045,0.272
						c0.05,0.089,0.141,0.172,0.276,0.249c0.159,0.092,0.33,0.15,0.51,0.174c0.181,0.025,0.366,0.02,0.556-0.01
						c-0.081,0.128-0.1,0.258-0.06,0.386c0.041,0.129,0.154,0.248,0.344,0.358c0.148,0.086,0.307,0.144,0.482,0.178
						c0.172,0.034,0.348,0.044,0.525,0.03c0.178-0.013,0.355-0.048,0.529-0.102c0.175-0.055,0.336-0.126,0.487-0.214
						c0.151-0.087,0.275-0.181,0.37-0.282c0.095-0.1,0.153-0.202,0.177-0.305C335.823,370.851,335.805,370.75,335.748,370.651z
						 M333.106,370.622c-0.112,0.037-0.225,0.06-0.335,0.07c-0.113,0.01-0.222,0.006-0.327-0.011
						c-0.105-0.018-0.2-0.052-0.286-0.102c-0.086-0.049-0.145-0.104-0.176-0.165c-0.032-0.061-0.038-0.124-0.02-0.189
						c0.018-0.064,0.058-0.13,0.12-0.195c0.061-0.064,0.142-0.125,0.239-0.182c0.098-0.056,0.202-0.102,0.316-0.138
						c0.113-0.036,0.225-0.059,0.337-0.07c0.113-0.01,0.222-0.006,0.327,0.011c0.104,0.018,0.2,0.052,0.286,0.101
						c0.086,0.05,0.142,0.105,0.171,0.166c0.029,0.061,0.033,0.124,0.014,0.187c-0.019,0.064-0.061,0.129-0.123,0.194
						c-0.062,0.064-0.139,0.126-0.231,0.182C333.32,370.539,333.216,370.586,333.106,370.622z M335.264,371.176
						c-0.07,0.074-0.161,0.145-0.278,0.211c-0.114,0.066-0.238,0.12-0.367,0.16c-0.129,0.04-0.259,0.065-0.39,0.077
						c-0.132,0.011-0.26,0.006-0.384-0.016c-0.124-0.022-0.237-0.062-0.337-0.121c-0.1-0.058-0.17-0.123-0.206-0.194
						c-0.037-0.07-0.046-0.144-0.026-0.221c0.019-0.076,0.063-0.15,0.133-0.225c0.069-0.075,0.162-0.145,0.277-0.213
						c0.117-0.066,0.238-0.119,0.368-0.159c0.129-0.04,0.259-0.065,0.39-0.078c0.132-0.01,0.259-0.005,0.382,0.015
						c0.123,0.021,0.235,0.062,0.335,0.12c0.1,0.058,0.171,0.124,0.208,0.195c0.039,0.072,0.048,0.146,0.029,0.222
						C335.377,371.027,335.333,371.102,335.264,371.176z"/>
					<path d="M366.399,365.081c-0.147-0.085-0.301-0.146-0.462-0.182c-0.159-0.036-0.32-0.049-0.481-0.04
						c-0.161,0.009-0.323,0.041-0.484,0.093c-0.16,0.052-0.319,0.122-0.47,0.208l-0.089,0.051l-0.159-1.174
						c-0.003-0.012-0.007-0.025-0.013-0.036c-0.005-0.012-0.017-0.023-0.036-0.034l-0.066-0.039
						c-0.067-0.039-0.135-0.039-0.203,0.001l-1.656,0.956c-0.065,0.038-0.064,0.076,0.003,0.114l0.066,0.039
						c0.065,0.038,0.131,0.038,0.196,0l1.342-0.775l0.163,1.151c0.004,0.015,0.009,0.03,0.018,0.044
						c0.009,0.013,0.026,0.027,0.049,0.041l0.066,0.038c0.065,0.038,0.131,0.039,0.196,0.001l0.39-0.226
						c0.228-0.132,0.455-0.208,0.682-0.23c0.226-0.021,0.45,0.032,0.668,0.157c0.11,0.063,0.187,0.131,0.231,0.2
						c0.045,0.07,0.06,0.141,0.045,0.214c-0.014,0.072-0.056,0.142-0.125,0.212c-0.068,0.07-0.159,0.138-0.275,0.204
						c-0.081,0.047-0.168,0.09-0.265,0.13c-0.096,0.04-0.199,0.072-0.307,0.093c-0.109,0.02-0.22,0.03-0.335,0.027
						c-0.116-0.004-0.235-0.027-0.356-0.069c-0.056-0.018-0.101-0.026-0.136-0.018c-0.034,0.005-0.062,0.015-0.086,0.029
						l-0.062,0.037c-0.027,0.014-0.042,0.032-0.044,0.051c-0.003,0.018,0.008,0.036,0.035,0.051
						c0.101,0.054,0.221,0.094,0.361,0.117c0.139,0.025,0.289,0.031,0.45,0.019c0.161-0.011,0.329-0.042,0.502-0.093
						c0.175-0.05,0.342-0.123,0.509-0.219c0.15-0.087,0.271-0.18,0.361-0.279c0.088-0.1,0.14-0.199,0.157-0.299
						c0.016-0.1-0.006-0.198-0.067-0.295C366.652,365.258,366.548,365.167,366.399,365.081z M368.536,364.761l-0.379-1.275
						c-0.008-0.036-0.023-0.077-0.044-0.123c-0.02-0.046-0.049-0.095-0.085-0.146c-0.035-0.051-0.081-0.103-0.138-0.156
						c-0.056-0.053-0.129-0.105-0.218-0.156c-0.125-0.073-0.268-0.131-0.433-0.176c-0.164-0.046-0.339-0.07-0.525-0.076
						c-0.187-0.005-0.376,0.012-0.569,0.053c-0.192,0.042-0.377,0.113-0.555,0.216c-0.178,0.103-0.301,0.21-0.373,0.321
						c-0.07,0.111-0.102,0.22-0.091,0.327c0.01,0.106,0.054,0.207,0.133,0.302c0.08,0.095,0.18,0.178,0.305,0.25
						c0.124,0.072,0.269,0.13,0.432,0.175c0.166,0.046,0.339,0.072,0.522,0.076c0.183,0.006,0.372-0.012,0.564-0.053
						c0.193-0.041,0.378-0.113,0.556-0.216c0.103-0.06,0.188-0.122,0.252-0.187l0.285,0.974c0,0.007,0.002,0.014,0.005,0.022
						c0.005,0.007,0.015,0.015,0.031,0.025c0.027,0.015,0.057,0.023,0.093,0.026c0.036,0.001,0.066-0.005,0.093-0.02l0.089-0.051
						c0.042-0.025,0.06-0.048,0.055-0.072C368.537,364.798,368.534,364.778,368.536,364.761z M367.616,363.748
						c-0.058,0.076-0.14,0.143-0.244,0.202c-0.104,0.06-0.22,0.107-0.348,0.14c-0.129,0.034-0.262,0.052-0.397,0.055
						c-0.136,0.004-0.272-0.009-0.407-0.04c-0.135-0.03-0.26-0.078-0.375-0.144c-0.116-0.068-0.199-0.14-0.252-0.218
						c-0.054-0.079-0.079-0.158-0.072-0.236c0.005-0.079,0.038-0.156,0.095-0.23c0.057-0.075,0.138-0.141,0.242-0.201
						c0.104-0.06,0.221-0.107,0.35-0.141c0.131-0.035,0.264-0.053,0.401-0.056c0.135-0.004,0.272,0.01,0.409,0.041
						c0.136,0.031,0.262,0.079,0.377,0.146c0.116,0.066,0.198,0.138,0.251,0.217c0.051,0.078,0.075,0.156,0.068,0.234
						C367.707,363.597,367.675,363.673,367.616,363.748z"/>
					<path d="M381.073,344.662c-0.032-0.112-0.103-0.223-0.216-0.327c-0.111-0.106-0.247-0.208-0.404-0.306
						c-0.237-0.143-0.486-0.286-0.746-0.431c-0.166-0.092-0.342-0.17-0.526-0.233c-0.186-0.065-0.375-0.106-0.569-0.125
						c-0.194-0.016-0.392-0.006-0.594,0.033c-0.2,0.039-0.403,0.118-0.604,0.233c-0.201,0.116-0.335,0.233-0.405,0.349
						c-0.067,0.117-0.086,0.231-0.057,0.343c0.031,0.112,0.1,0.223,0.215,0.329c0.111,0.104,0.248,0.206,0.408,0.302
						c0.248,0.149,0.498,0.294,0.746,0.431c0.166,0.092,0.342,0.17,0.526,0.233c0.185,0.065,0.374,0.106,0.569,0.125
						c0.193,0.016,0.391,0.006,0.593-0.033c0.201-0.039,0.402-0.116,0.603-0.233c0.201-0.116,0.337-0.233,0.406-0.349
						C381.086,344.887,381.104,344.772,381.073,344.662z M380.347,345.197c-0.263,0.153-0.547,0.215-0.849,0.188
						c-0.3-0.027-0.607-0.127-0.919-0.3c-0.13-0.072-0.249-0.139-0.357-0.2c-0.108-0.063-0.224-0.131-0.344-0.204
						c-0.293-0.176-0.465-0.352-0.516-0.527c-0.05-0.178,0.057-0.341,0.32-0.492c0.261-0.151,0.545-0.213,0.851-0.184
						c0.307,0.029,0.612,0.127,0.918,0.296c0.127,0.069,0.244,0.137,0.353,0.198c0.107,0.063,0.225,0.131,0.348,0.206
						c0.299,0.18,0.473,0.358,0.519,0.531C380.718,344.883,380.612,345.046,380.347,345.197z M377.744,346.035l0.405-0.235
						c0.065-0.037,0.065-0.076,0-0.112l-0.07-0.041c-0.065-0.039-0.131-0.039-0.196,0l-0.404,0.233l-1.945-1.122
						c-0.065-0.039-0.13-0.039-0.195,0l-0.183,0.104c-0.074,0.043-0.104,0.088-0.089,0.139l0.581,1.894
						c0.009,0.033,0.025,0.057,0.045,0.074c0.022,0.018,0.035,0.029,0.041,0.033l0.069,0.041c0.065,0.037,0.131,0.037,0.196,0
						l1.465-0.846l0.703,0.405c0.063,0.037,0.129,0.037,0.194,0l0.085-0.049c0.065-0.039,0.064-0.076,0.001-0.112L377.744,346.035z
						 M375.986,346.742l-0.516-1.698l1.729,0.997L375.986,346.742z"/>
					<path d="M414.522,338.2l-2.914-1.682c-0.064-0.038-0.13-0.038-0.195,0l-0.084,0.049c-0.02,0.011-0.039,0.023-0.053,0.036
						c-0.015,0.011-0.027,0.028-0.032,0.048l-0.218,0.967c-0.006,0.025,0.002,0.044,0.025,0.06c0.021,0.016,0.055,0.027,0.096,0.03
						l0.11,0.008c0.089,0.006,0.14-0.016,0.155-0.069l0.182-0.813l2.648,1.529c0.063,0.038,0.129,0.038,0.194,0l0.084-0.049
						C414.587,338.276,414.587,338.238,414.522,338.2z M411.835,338.941l0.405-0.233c0.064-0.038,0.064-0.076-0.001-0.113
						l-0.07-0.041c-0.065-0.038-0.131-0.038-0.196,0l-0.405,0.233l-1.945-1.123c-0.064-0.037-0.129-0.037-0.194,0.001l-0.182,0.104
						c-0.075,0.043-0.104,0.089-0.09,0.139l0.581,1.894c0.009,0.033,0.025,0.057,0.045,0.075c0.021,0.017,0.034,0.028,0.04,0.031
						l0.072,0.041c0.065,0.038,0.131,0.038,0.195,0.001l1.466-0.846l0.701,0.405c0.065,0.037,0.13,0.038,0.195,0l0.085-0.049
						c0.065-0.038,0.064-0.076,0-0.112L411.835,338.941z M410.077,339.649l-0.515-1.698l1.727,0.997L410.077,339.649z"/>
					<path d="M426.799,318.523l-0.068-0.039c-0.068-0.039-0.136-0.039-0.204,0l-1.488,0.86l-0.017-1.212
						c0.011-0.18-0.013-0.335-0.077-0.464c-0.06-0.127-0.184-0.245-0.368-0.352c-0.116-0.065-0.244-0.121-0.388-0.165
						c-0.143-0.043-0.295-0.067-0.453-0.072c-0.159-0.004-0.323,0.014-0.491,0.053c-0.168,0.039-0.337,0.108-0.506,0.206
						c-0.169,0.096-0.285,0.196-0.349,0.3c-0.062,0.104-0.089,0.204-0.077,0.3c0.01,0.098,0.053,0.19,0.124,0.276
						c0.072,0.084,0.156,0.157,0.253,0.217c0.056,0.033,0.115,0.031,0.178-0.004l0.089-0.051c0.018-0.01,0.03-0.027,0.036-0.049
						c0.005-0.022-0.006-0.045-0.037-0.07c-0.169-0.125-0.253-0.255-0.254-0.388c-0.002-0.135,0.1-0.26,0.305-0.378
						c0.212-0.123,0.432-0.186,0.657-0.186c0.226,0.002,0.436,0.057,0.634,0.172c0.069,0.041,0.125,0.08,0.172,0.121
						c0.046,0.039,0.082,0.086,0.108,0.137c0.027,0.051,0.044,0.11,0.054,0.178c0.009,0.065,0.01,0.145,0.004,0.237l-0.001,1.328
						c-0.002,0.047,0.002,0.082,0.013,0.108c0.013,0.025,0.034,0.047,0.062,0.063l0.068,0.039c0.065,0.037,0.13,0.037,0.195,0
						l1.821-1.05C426.862,318.599,426.863,318.56,426.799,318.523z M423.188,319.798l0.405-0.233c0.064-0.039,0.065-0.076,0-0.115
						l-0.072-0.041c-0.065-0.037-0.131-0.037-0.195,0l-0.405,0.233l-1.945-1.122c-0.064-0.037-0.13-0.037-0.195,0l-0.182,0.104
						c-0.074,0.043-0.104,0.09-0.09,0.139l0.582,1.894c0.009,0.033,0.025,0.057,0.045,0.076c0.02,0.016,0.034,0.026,0.04,0.031
						l0.07,0.041c0.065,0.037,0.131,0.037,0.196,0l1.465-0.846l0.702,0.405c0.064,0.037,0.13,0.037,0.195,0l0.084-0.049
						c0.065-0.037,0.065-0.076,0.001-0.112L423.188,319.798z M421.429,320.505l-0.515-1.698l1.728,0.997L421.429,320.505z"/>
				</g>
			</g>
		</g>
		<g>
			<path style="fill:#455A64;" d="M439.892,317.408l-134.417,77.57c0.167-0.136,0.262-0.366,0.262-0.68
				c0-0.701-0.502-1.569-1.109-1.915c-0.293-0.167-0.555-0.188-0.743-0.105l134.438-77.591c0.753-0.429,1.716-0.178,2.145,0.576
				C440.897,316.016,440.646,316.969,439.892,317.408z"/>
			<path style="fill:#BA68C8;" d="M305.737,394.298c0,0.314-0.094,0.544-0.262,0.68c-0.031,0.021-0.063,0.042-0.105,0.063
				l-96.721,55.823c-0.251,0.147-0.523,0.22-0.785,0.22c-0.544,0-1.067-0.283-1.36-0.785c-0.439-0.753-0.178-1.716,0.576-2.145
				l96.701-55.812c0.031-0.021,0.063-0.042,0.105-0.063c0.188-0.084,0.45-0.063,0.743,0.105
				C305.235,392.729,305.737,393.597,305.737,394.298z"/>
		</g>
		<path style="opacity:0.2;fill:#BA68C8;" d="M457.026,314.102c0-3.139-1.025-6.031-2.742-8.388
			c-0.78,9.843-10.498,14.245-26.266,23.559c-15.779,9.321-170.667,98.93-179.088,103.832c-8.42,4.903-7.505-2.892-23.43,6.589
			c-1.75,1.042-3.591,2.139-5.478,3.264l2.557,4.92c4.085-2.353,6.773-3.905,9.934-5.73c3.161-1.825,13.833,1.829,21.251-2.454
			L449.268,326.82c0,0,0.581-0.35,0.589-0.356C454.136,323.998,457.026,319.394,457.026,314.102z"/>
		<path style="opacity:0.4;fill:#FFFFFF;" d="M226.617,434.517c2.151-1.616,4.277-3.335,5.857-5.495
			c0.767-1.097,1.309-2.307,1.796-3.569c0.485-1.263,1.145-2.504,2.022-3.57c3.682-4.154,8.708-6.54,13.243-9.394l27.833-16.55
			c18.565-11.014,37.224-21.864,55.831-32.804c18.692-10.793,37.338-21.664,56.074-32.385l28.121-16.055
			c4.688-2.677,9.374-5.364,14.174-7.857c2.413-1.218,4.852-2.417,7.444-3.249c1.306-0.372,2.657-0.652,4.021-0.604
			c1.366,0.038,2.685,0.445,3.917,0.986c-1.253-0.494-2.578-0.844-3.919-0.828c-1.34,0.006-2.651,0.332-3.921,0.747
			c-2.527,0.899-4.917,2.155-7.281,3.438c-4.706,2.621-9.306,5.44-13.912,8.25l-27.826,16.559
			c-18.569,11.01-37.228,21.869-55.841,32.806c-18.698,10.79-37.345,21.671-56.084,32.387l-28.125,16.046l-7.024,3.989
			c-2.265,1.415-4.528,2.905-6.301,4.874c-1.834,1.932-2.281,4.78-3.987,6.969C231.024,431.354,228.829,432.984,226.617,434.517z"/>
		<g>
			<g>
				<path style="fill:#FAFAFA;" d="M190.836,464.821c-2.916,0-5.288-2.373-5.288-5.289c0-1.88,1.018-3.634,2.657-4.579l0.248-0.15
					l29.23-16.883c0.176-0.087,0.407-0.139,0.659-0.139c0.425,0,0.91,0.15,1.402,0.433c2.03,1.171,3.683,4.192,3.683,6.734
					c0,1.204-0.383,2.095-1.05,2.446l-29.391,16.97C192.335,464.66,191.597,464.821,190.836,464.821z"/>
				<path style="fill:#E0E0E0;" d="M218.342,438.305c0.334,0,0.729,0.125,1.14,0.362c1.854,1.07,3.421,3.947,3.421,6.282
					c0,0.988-0.288,1.729-0.792,1.994l-0.028,0.014l-0.027,0.016l-29.059,16.783l-0.227,0.131c-0.613,0.273-1.263,0.411-1.933,0.411
					c-2.627,0-4.765-2.137-4.765-4.765c0-1.694,0.917-3.274,2.419-4.14l0.216-0.131l29.205-16.869
					C218.037,438.335,218.182,438.305,218.342,438.305 M218.342,437.259c-0.336,0-0.646,0.071-0.921,0.209l-29.238,16.888
					c0,0-0.236,0.143-0.24,0.145c-1.742,1.004-2.918,2.878-2.918,5.032c0,3.21,2.602,5.811,5.811,5.811
					c0.861,0,1.676-0.19,2.411-0.525l0.272-0.157l29.06-16.783l0.042-0.021c0.816-0.429,1.329-1.444,1.329-2.909
					c0-2.72-1.768-5.932-3.945-7.188C219.414,437.421,218.849,437.259,218.342,437.259L218.342,437.259z"/>
			</g>
			<path style="opacity:0.1;" d="M222.621,447.857c0.816-0.429,1.329-1.444,1.329-2.909c0-0.538-0.086-1.096-0.214-1.654
				c-4.001,2.241-23.868,13.518-28.751,16.287c-5.962,3.382-9.36,2.513-9.851-1.157c-0.07,0.36-0.108,0.727-0.108,1.108
				c0,3.21,2.602,5.811,5.811,5.811c0.861,0,1.676-0.19,2.411-0.525l0.272-0.157l29.06-16.783L222.621,447.857z"/>
		</g>
	</g>
</g>
<g id="Digital_Thermometer_1_">
	<g id="Digital_Thermometer">
		<g>
			<path style="fill:#BA68C8;" d="M380.976,282.956c0-2.84-1.877-5.68-5.63-7.847l-11.068-6.39c-7.507-4.334-19.677-4.334-27.184,0
				c-30.901,17.84-104.786,60.498-118.162,68.221c-17,9.815-33.223,32.341-54.817,46.873
				c-21.594,14.533-38.686,25.977-38.686,25.977v6.95l5.462,3.288c0,0,19.935-9.939,45.106-22.406
				c25.171-12.467,64.187-14.06,81.187-23.876c13.376-7.722,87.261-50.38,118.162-68.221c3.753-2.167,5.63-5.007,5.63-7.847
				C380.976,295.043,380.976,285.591,380.976,282.956z"/>
			<path style="opacity:0.6;fill:#FFFFFF;" d="M380.976,282.956c0-2.84-1.877-5.68-5.63-7.847l-11.068-6.39
				c-7.507-4.334-19.677-4.334-27.184,0c-30.901,17.84-104.786,60.498-118.162,68.221c-17,9.815-33.223,32.341-54.817,46.873
				c-21.594,14.533-38.686,25.977-38.686,25.977v6.95l5.462,3.288c0,0,19.935-9.939,45.106-22.406
				c25.171-12.467,64.187-14.06,81.187-23.876c13.376-7.722,87.261-50.38,118.162-68.221c3.753-2.167,5.63-5.007,5.63-7.847
				C380.976,295.043,380.976,285.591,380.976,282.956z"/>
		</g>
		<g>
			<path style="fill:#BA68C8;" d="M175.997,390.672c25.171-12.467,64.186-21.833,81.187-31.648
				c13.375-7.722,87.261-50.38,118.162-68.221c3.753-2.167,5.63-5.007,5.63-7.847c0-2.84-1.877-5.68-5.63-7.847l-11.068-6.39
				c-7.507-4.334-19.677-4.334-27.184,0c-30.901,17.84-104.786,60.498-118.162,68.221c-17.001,9.815-33.223,32.341-54.817,46.873
				c-21.593,14.533-38.686,25.977-38.686,25.977l5.574,3.218C131.004,413.008,150.826,403.139,175.997,390.672z"/>
			<path style="opacity:0.8;fill:#FFFFFF;" d="M175.997,390.672c25.171-12.467,64.186-21.833,81.187-31.648
				c13.375-7.722,87.261-50.38,118.162-68.221c3.753-2.167,5.63-5.007,5.63-7.847c0-2.84-1.877-5.68-5.63-7.847l-11.068-6.39
				c-7.507-4.334-19.677-4.334-27.184,0c-30.901,17.84-104.786,60.498-118.162,68.221c-17.001,9.815-33.223,32.341-54.817,46.873
				c-21.593,14.533-38.686,25.977-38.686,25.977l5.574,3.218C131.004,413.008,150.826,403.139,175.997,390.672z"/>
		</g>
		<path style="fill:#FFFFFF;" d="M345.439,307.478l-29.796,16.866l-59.421,34.01c-4.893,2.736-10.158,4.914-15.45,6.968
			c-5.311,2.031-10.684,3.928-16.069,5.801c-10.772,3.747-21.627,7.328-32.254,11.574c-5.303,2.143-10.6,4.325-15.724,6.904
			l-15.281,7.727c-10.146,5.229-20.323,10.395-30.44,15.68c10.327-4.863,20.594-9.847,30.893-14.767l15.404-7.457
			c5.116-2.469,10.419-4.551,15.728-6.594c10.663-3.991,21.477-7.608,32.292-11.27c5.404-1.846,10.804-3.719,16.164-5.735
			c5.349-2.045,10.678-4.206,15.768-7.014l29.619-17.188c9.859-5.749,19.757-11.43,29.576-17.246l29.504-17.371
			c9.796-5.857,19.629-11.651,29.394-17.563C365.344,296.304,355.41,301.922,345.439,307.478z"/>
		<g>
			<path style="fill:#BA68C8;" d="M312.435,289.676c0.665,0,1.3,0.146,1.742,0.401l25.22,14.561c0.341,0.197,0.415,0.37,0.415,0.402
				c0,0.032-0.074,0.205-0.415,0.402l-46.471,26.83c-0.442,0.255-1.077,0.402-1.742,0.402s-1.3-0.146-1.742-0.402l-25.22-14.561
				c-0.341-0.197-0.415-0.37-0.415-0.402c0-0.032,0.074-0.205,0.415-0.402l46.471-26.83
				C311.135,289.822,311.77,289.676,312.435,289.676 M312.435,288.63c-0.82,0-1.64,0.181-2.265,0.542l-46.471,26.83
				c-1.251,0.722-1.251,1.893,0,2.616l25.22,14.561c0.626,0.361,1.445,0.542,2.265,0.542c0.82,0,1.64-0.18,2.265-0.542l46.471-26.83
				c1.251-0.722,1.251-1.894,0-2.616l-25.22-14.561C314.075,288.81,313.255,288.63,312.435,288.63L312.435,288.63z"/>
			<g>
				<path style="fill:#BA68C8;" d="M325.702,300.133c0-1.332-0.88-2.664-2.641-3.681c-3.521-2.033-9.23-2.033-12.75,0
					c-1.761,1.016-2.641,2.349-2.641,3.681c0,0.412,0,2.041,0,2.454c0,1.332,0.88,2.664,2.641,3.681
					c3.521,2.033,9.229,2.033,12.75,0c1.76-1.016,2.641-2.348,2.641-3.681C325.702,302.174,325.702,300.545,325.702,300.133z"/>
				<path style="opacity:0.2;" d="M325.702,300.133c0-1.332-0.88-2.664-2.641-3.681c-3.521-2.033-9.23-2.033-12.75,0
					c-1.761,1.016-2.641,2.349-2.641,3.681c0,0.412,0,2.041,0,2.454c0,1.332,0.88,2.664,2.641,3.681
					c3.521,2.033,9.229,2.033,12.75,0c1.76-1.016,2.641-2.348,2.641-3.681C325.702,302.174,325.702,300.545,325.702,300.133z"/>
				<path style="fill:#BA68C8;" d="M310.31,296.452c-1.76,1.016-2.641,2.349-2.641,3.681c0,1.332,0.88,2.664,2.641,3.681
					c3.521,2.033,9.23,2.033,12.75,0c1.76-1.016,2.641-2.348,2.641-3.681c0-1.332-0.88-2.664-2.641-3.681
					C319.54,294.419,313.831,294.419,310.31,296.452z"/>
			</g>
			<g>
				<path style="fill:#455A64;" d="M310.514,313.514l-22.223,12.828c-0.743,0.429-1.967,0.429-2.71,0l-9.458-5.462l22.203-12.828
					c0.753-0.44,1.967-0.44,2.72,0L310.514,313.514z"/>
				<path style="fill:#BA68C8;" d="M311.079,313.19l-0.565,0.324l-9.469-5.462c-0.753-0.44-1.967-0.44-2.72,0l-22.203,12.828
					l-0.575-0.335c-0.754-0.429-0.754-1.13,0-1.569l22.778-13.152c0.753-0.429,1.967-0.429,2.72,0l10.034,5.797
					C311.832,312.049,311.832,312.75,311.079,313.19z"/>
				<g>
					<g>
						<path style="fill:#F0F0F0;" d="M289.974,320.32l1.096,0.633c0.53,0.305,0.707,0.653,0.527,1.038
							c-0.177,0.385-0.588,0.764-1.229,1.135c-0.642,0.371-1.289,0.602-1.946,0.699c-0.656,0.094-1.247-0.011-1.777-0.317
							l-0.428-0.245c-0.148-0.086-0.091-0.205,0.166-0.354c0.259-0.148,0.462-0.18,0.61-0.094l0.525,0.302
							c0.263,0.151,0.591,0.185,0.979,0.1c0.385-0.086,0.784-0.248,1.192-0.485c0.411-0.237,0.696-0.471,0.853-0.702
							c0.16-0.234,0.108-0.425-0.148-0.573l-1.195-0.69c-0.294-0.171-0.545-0.257-0.747-0.26c-0.203,0-0.482,0.103-0.836,0.305
							l-1.666,0.961c-0.131,0.077-0.308,0.048-0.536-0.083c-0.222-0.131-0.274-0.234-0.143-0.308l1.364-0.79l-0.011-0.531
							c-0.006-0.419-0.177-0.73-0.519-0.927l-0.117-0.065c-0.328-0.191-0.622-0.294-0.881-0.314
							c-0.257-0.02-0.525,0.051-0.802,0.211l-2.245,1.298c-0.131,0.077-0.308,0.049-0.536-0.083
							c-0.228-0.131-0.274-0.234-0.143-0.308l2.245-1.298c0.556-0.32,1.076-0.474,1.569-0.459c0.494,0.017,1.013,0.183,1.566,0.505
							l0.165,0.094c0.185,0.108,0.348,0.268,0.485,0.476c0.137,0.208,0.208,0.422,0.214,0.642v0.245
							c0.405-0.16,0.793-0.223,1.155-0.188C289.144,319.929,289.543,320.072,289.974,320.32z"/>
					</g>
					<g>
						<path style="fill:#F0F0F0;" d="M292.55,320.098l-4.076-2.353c-0.599-0.345-0.919-0.665-0.95-0.953
							c-0.04-0.288,0.223-0.593,0.779-0.916l2.439-1.409c0.128-0.074,0.305-0.046,0.531,0.086c0.228,0.131,0.277,0.234,0.148,0.308
							l-2.439,1.409c-0.28,0.16-0.396,0.317-0.357,0.474c0.04,0.151,0.251,0.34,0.625,0.553l1.173,0.676l2.011-0.859
							c0.385-0.162,0.705-0.282,0.958-0.368c0.254-0.083,0.522-0.145,0.816-0.185c0.556-0.091,1.11,0.023,1.658,0.339l1.112,0.642
							c0.531,0.308,0.707,0.653,0.528,1.038c-0.177,0.385-0.588,0.764-1.229,1.135c-0.642,0.371-1.289,0.605-1.945,0.699
							C293.674,320.511,293.081,320.406,292.55,320.098z M293.426,319.707c0.262,0.154,0.59,0.188,0.979,0.1
							c0.382-0.086,0.781-0.245,1.192-0.482c0.411-0.237,0.696-0.471,0.856-0.704c0.157-0.234,0.106-0.425-0.151-0.573l-1.289-0.745
							c-0.22-0.126-0.476-0.171-0.77-0.131c-0.291,0.04-0.665,0.154-1.107,0.345l-2.014,0.862L293.426,319.707z"/>
					</g>
					<g>
						<path style="fill:#F0F0F0;" d="M299.448,316.666l0.824,0.477c0.151,0.089,0.094,0.211-0.18,0.371
							c-0.274,0.16-0.493,0.191-0.645,0.103l-0.824-0.473c-0.154-0.091-0.094-0.217,0.18-0.374
							C299.077,316.609,299.294,316.577,299.448,316.666z"/>
					</g>
					<g>
						<path style="fill:#F0F0F0;" d="M297.559,313.807l-1.135-0.653c-0.599-0.348-0.919-0.665-0.95-0.953
							c-0.04-0.291,0.222-0.593,0.779-0.916l2.248-1.298c0.128-0.074,0.302-0.046,0.53,0.086c0.228,0.131,0.277,0.234,0.148,0.308
							l-2.248,1.298c-0.28,0.16-0.397,0.317-0.354,0.471c0.04,0.154,0.248,0.342,0.622,0.556l1.181,0.682l1.903-0.702
							c0.898-0.345,1.506-0.528,1.817-0.551c0.445-0.034,0.779-0.011,1.001,0.066c0.223,0.074,0.428,0.168,0.616,0.277l1.016,0.585
							c0.53,0.308,0.707,0.653,0.528,1.038c-0.177,0.385-0.585,0.764-1.227,1.135c-0.645,0.371-1.292,0.605-1.948,0.699
							c-0.656,0.097-1.246-0.008-1.777-0.317l-0.428-0.245c-0.148-0.086-0.091-0.202,0.165-0.351c0.26-0.151,0.462-0.183,0.61-0.097
							l0.525,0.302c0.262,0.154,0.59,0.188,0.978,0.1c0.385-0.086,0.785-0.245,1.195-0.482c0.408-0.237,0.693-0.471,0.853-0.705
							c0.157-0.234,0.105-0.425-0.151-0.573l-1.192-0.688c-0.211-0.123-0.456-0.165-0.725-0.123
							c-0.274,0.04-0.656,0.151-1.152,0.334l-2.277,0.844c-0.22,0.083-0.408,0.117-0.559,0.103
							C297.996,314.021,297.799,313.944,297.559,313.807z"/>
					</g>
				</g>
			</g>
		</g>
		<g>
			<g>
				<path style="fill:#FAFAFA;" d="M107.548,432.115c-2.916,0-5.289-2.372-5.289-5.289c0-1.88,1.018-3.634,2.657-4.579l0.249-0.15
					l20.729-11.975c0.176-0.087,0.407-0.139,0.659-0.139c0.425,0,0.911,0.149,1.403,0.432c2.029,1.171,3.682,4.192,3.682,6.734
					c0,1.204-0.382,2.095-1.049,2.446l-20.893,12.064C109.046,431.954,108.309,432.115,107.548,432.115z"/>
				<path style="fill:#E0E0E0;" d="M126.553,410.507c0.334,0,0.729,0.125,1.14,0.362c1.854,1.07,3.421,3.947,3.421,6.282
					c0,0.988-0.288,1.729-0.791,1.993l-0.029,0.014l-0.028,0.016l-20.559,11.875l-0.227,0.131c-0.613,0.273-1.264,0.411-1.933,0.411
					c-2.627,0-4.765-2.138-4.765-4.765c0-1.694,0.918-3.274,2.42-4.141l0.215-0.13l20.705-11.961
					C126.248,410.536,126.393,410.507,126.553,410.507 M126.553,409.461c-0.336,0-0.646,0.071-0.921,0.209l-20.738,11.98
					c0,0-0.236,0.143-0.24,0.145c-1.742,1.004-2.918,2.878-2.918,5.032c0,3.21,2.602,5.811,5.811,5.811
					c0.861,0,1.676-0.19,2.411-0.525l0.272-0.157l20.56-11.876l0.042-0.021c0.816-0.429,1.329-1.444,1.329-2.909
					c0-2.72-1.768-5.933-3.945-7.188C127.625,409.623,127.06,409.461,126.553,409.461L126.553,409.461z"/>
			</g>
			<path style="opacity:0.1;" d="M130.832,420.059c0.816-0.429,1.329-1.444,1.329-2.909c0-0.538-0.086-1.096-0.214-1.654
				c-4.001,2.241-15.368,8.611-20.251,11.38c-5.962,3.382-9.36,2.513-9.851-1.157c-0.07,0.36-0.108,0.727-0.108,1.108
				c0,3.21,2.602,5.811,5.811,5.811c0.861,0,1.676-0.19,2.411-0.525l0.272-0.157l20.56-11.876L130.832,420.059z"/>
		</g>
		<g>
			<g>
				<path style="fill:#BA68C8;" d="M380.972,283.224v14.46c0,2.836-1.873,5.671-5.629,7.847c-3.474,1.998-7.502,4.332-11.917,6.885
					v-14.732c4.415-2.542,8.444-4.876,11.917-6.885C378.984,288.706,380.857,285.976,380.972,283.224z"/>
				<path style="opacity:0.2;" d="M380.972,283.224v14.46c0,2.836-1.873,5.671-5.629,7.847c-3.474,1.998-7.502,4.332-11.917,6.885
					v-14.732c4.415-2.542,8.444-4.876,11.917-6.885C378.984,288.706,380.857,285.976,380.972,283.224z"/>
			</g>
			<path style="fill:#BA68C8;" d="M363.421,297.688c4.42-2.552,8.447-4.877,11.926-6.885c7.507-4.334,7.507-11.361,0-15.694
				l-11.068-6.39c-7.507-4.334-19.677-4.334-27.184,0c-3.475,2.006-7.496,4.328-11.91,6.877L363.421,297.688z"/>
			<path style="opacity:0.2;" d="M359.449,289.865l-21.251-12.27c-0.249-0.145-0.57-0.059-0.714,0.191
				c-0.145,0.25-0.059,0.57,0.191,0.714l21.251,12.27c0.083,0.048,0.173,0.07,0.262,0.07c0.18,0,0.357-0.094,0.453-0.262
				C359.785,290.329,359.699,290.009,359.449,289.865z M346.175,278.501l12.751,7.362c0.083,0.048,0.173,0.07,0.262,0.07
				c0.18,0,0.357-0.094,0.453-0.262c0.145-0.25,0.059-0.57-0.191-0.714l-12.751-7.362c-0.248-0.145-0.57-0.059-0.714,0.191
				C345.839,278.037,345.925,278.357,346.175,278.501z"/>
		</g>
	</g>
</g>
<g id="Infrared_Thermometer_1_">
	<g id="Infrared_Thermometer">
		<g>
			<path style="fill:#BA68C8;" d="M95.25,266.401c-0.558-18.607-3.621-31.137-8.378-39.561c0.885,3.725-4.078,18.976-6.572,26.249
				c-0.779,2.271,0.159,4.773,2.238,5.973L95.25,266.401z"/>
			<path style="opacity:0.3;fill:#FFFFFF;" d="M95.25,266.401c-0.558-18.607-3.621-31.137-8.378-39.561
				c0.885,3.725-4.078,18.976-6.572,26.249c-0.779,2.271,0.159,4.773,2.238,5.973L95.25,266.401z"/>
		</g>
		<g>
			<path style="fill:#BA68C8;" d="M165.936,118.854c-7.137-4.121-61.763-24.395-86.164-33.376
				c-7.416-2.729-15.652-2.02-22.495,1.931l-12.172,7.027C35.758,99.833,30,109.806,30,120.599l0,30.026
				c0,5.542,2.603,10.762,7.045,14.076c17.555,13.096,34.444,29.736,41.893,42.054c7.315,12.096,10.875,27.421,14.103,62.392
				c2.463,26.678,5.53,62.965,6.912,79.471c0.463,5.53,3.605,10.48,8.411,13.255l21.917,12.654c5.241,3.026,11.699,3.026,16.94,0
				l21.148-12.21c5.209-3.007,8.439-8.554,8.468-14.568C177.21,270.057,181.6,200.245,165.936,118.854z"/>
			<path style="fill:#455A64;" d="M116.319,366.466c-3.32-1.917-6.221-5.157-6.449-10.002c-0.228-4.845-6.301-85.259-9.184-105.759
				c-2.788-19.818-5.268-21.857-14.696-27.321c2.99,10.436,5.082,24.446,7.05,45.762c2.463,26.678,5.53,62.965,6.912,79.471
				c0.463,5.53,3.605,10.48,8.411,13.255L116.319,366.466C116.319,366.466,116.319,366.466,116.319,366.466z"/>
			<path style="opacity:0.2;" d="M79.771,85.477c-7.416-2.729-15.651-2.02-22.495,1.931l-12.172,7.027
				C35.758,99.833,30,109.806,30,120.599l0,30.026c0,5.541,2.603,10.762,7.045,14.076c3.341,2.493,6.657,5.115,9.89,7.81
				c-3.853-3.846-6.06-9.074-6.06-14.569v-33.826c0-9.081,4.855-17.469,12.729-21.993l21.213-12.187
				c4.224-2.427,9.306-2.854,13.876-1.167l1.352,0.499C86.259,87.868,82.784,86.586,79.771,85.477z"/>
		</g>
		<g>
			<g>
				<path style="fill:#455A64;" d="M192.642,156.918l-1.141-18.679c-0.209-3.139-1.725-5.631-3.878-6.865
					c-1.519-0.87-19.567-11.275-21.687-12.521c-1.531-0.9-3.392-1.158-5.338-0.552c-19.12,5.952-37.853,16.898-56.196,32.902
					c-3.642,3.178-6.189,10.222-5.823,15.577c0.261,3.827,0.313,4.588,0.287,4.199c0.176,2.587,0.48,7.036,0.982,14.402
					c2.481,36.377,12.946,62.944,25.965,70.541c3.645,2.127,18.157,10.508,21.905,12.656c4.914,2.817,10.188,2.932,15.534-0.154
					C182.83,257.118,195.989,207.195,192.642,156.918z"/>
				<g>
					<path style="fill:#BA68C8;" d="M120.328,179.338c1.021,14.973-1.154-16.922,1.269,18.601
						c3.426,50.234,22.075,81.791,41.654,70.486c19.579-11.306,32.738-61.229,29.391-111.506l-1.141-18.679
						c-0.357-5.354-4.513-8.826-9.153-7.38c-19.119,5.952-37.853,16.897-56.196,32.902
						C122.51,166.938,119.963,173.983,120.328,179.338z"/>
					<path style="opacity:0.6;fill:#FFFFFF;" d="M120.328,179.338c1.021,14.973-1.154-16.922,1.269,18.601
						c3.426,50.234,22.075,81.791,41.654,70.486c19.579-11.306,32.738-61.229,29.391-111.506l-1.141-18.679
						c-0.357-5.354-4.513-8.826-9.153-7.38c-19.119,5.952-37.853,16.897-56.196,32.902
						C122.51,166.938,119.963,173.983,120.328,179.338z"/>
				</g>
			</g>
			<g>
				<g>
					<path style="fill:#BA68C8;" d="M175.685,199.901l-32.674,18.865c-2.388,1.379-4.493,0.013-4.701-3.05l-2.922-42.848
						c-0.209-3.063,1.557-6.663,3.945-8.042l32.674-18.865c2.388-1.378,4.493-0.013,4.702,3.05l2.922,42.848
						C179.838,194.922,178.072,198.522,175.685,199.901z"/>
					<polygon style="fill:#455A64;" points="142.918,212.636 140.051,170.593 172.098,152.09 174.965,194.133 					"/>
					<g>
						<g>
							<path style="fill:#F0F0F0;" d="M150.681,188.649l0.14,2.071c0.07,0.999-0.194,1.916-0.786,2.737
								c-0.589,0.821-1.36,1.508-2.305,2.054c-0.945,0.547-1.732,0.758-2.37,0.648c-0.635-0.118-0.985-0.674-1.054-1.674
								l-0.057-0.804c-0.019-0.28,0.166-0.534,0.544-0.753c0.38-0.217,0.579-0.186,0.598,0.094l0.068,0.99
								c0.034,0.495,0.257,0.747,0.667,0.745c0.408-0.003,0.917-0.181,1.519-0.531c0.604-0.348,1.105-0.755,1.499-1.222
								c0.4-0.471,0.581-0.952,0.548-1.437l-0.154-2.258c-0.036-0.559-0.137-0.892-0.296-1.004c-0.162-0.105-0.506-0.007-1.024,0.29
								l-2.452,1.415c-0.195,0.115-0.303-0.045-0.333-0.475c-0.025-0.426,0.053-0.697,0.244-0.805l2.011-1.166l0.608-1.264
								c0.483-0.998,0.708-1.824,0.663-2.468l-0.018-0.216c-0.04-0.624-0.156-1.02-0.34-1.202c-0.182-0.18-0.48-0.151-0.888,0.085
								l-3.307,1.912c-0.195,0.115-0.303-0.045-0.333-0.475c-0.03-0.43,0.053-0.697,0.244-0.805l3.307-1.912
								c0.817-0.469,1.412-0.564,1.79-0.274c0.376,0.296,0.598,0.959,0.667,2.01l0.023,0.31c0.022,0.353-0.033,0.817-0.166,1.381
								c-0.133,0.565-0.325,1.11-0.576,1.634l-0.285,0.582c0.51-0.169,0.894-0.116,1.144,0.153
								C150.471,187.291,150.625,187.837,150.681,188.649z"/>
						</g>
						<g>
							<path style="fill:#F0F0F0;" d="M153.002,189.459l-0.525-7.698c-0.078-1.13,0.038-2.054,0.348-2.753
								c0.303-0.704,0.868-1.291,1.689-1.767l3.591-2.076c0.189-0.109,0.297,0.05,0.325,0.479c0.03,0.43-0.051,0.699-0.24,0.808
								l-3.592,2.075c-0.41,0.234-0.686,0.545-0.836,0.938c-0.144,0.379-0.194,0.935-0.144,1.637l0.152,2.213l2.609-0.992
								c0.497-0.185,0.892-0.303,1.195-0.374c0.3-0.065,0.587-0.074,0.869-0.016c0.552,0.072,0.862,0.63,0.932,1.666l0.144,2.1
								c0.066,1.007-0.194,1.917-0.786,2.737c-0.59,0.821-1.36,1.508-2.305,2.054c-0.945,0.546-1.736,0.764-2.37,0.647
								C153.42,191.023,153.068,190.465,153.002,189.459z M154.157,188.987c0.031,0.502,0.253,0.753,0.667,0.745
								c0.405-0.005,0.911-0.176,1.515-0.524c0.604-0.348,1.105-0.755,1.505-1.227c0.398-0.473,0.579-0.953,0.546-1.438
								l-0.166-2.435c-0.03-0.412-0.182-0.653-0.464-0.711c-0.279-0.057-0.711,0.02-1.287,0.243l-2.615,0.998L154.157,188.987z"/>
						</g>
						<g>
							<path style="fill:#F0F0F0;" d="M162.515,184.902l0.106,1.558c0.018,0.288-0.17,0.55-0.575,0.786
								c-0.405,0.236-0.617,0.197-0.635-0.092l-0.109-1.551c-0.017-0.296,0.177-0.563,0.578-0.793
								C162.285,184.574,162.495,184.612,162.515,184.902z"/>
						</g>
						<g>
							<path style="fill:#F0F0F0;" d="M164.329,177.143l-0.149-2.139c-0.075-1.137,0.038-2.054,0.348-2.753
								c0.306-0.711,0.868-1.292,1.689-1.767l3.309-1.911c0.189-0.109,0.295,0.049,0.325,0.479c0.03,0.43-0.051,0.699-0.239,0.807
								l-3.31,1.911c-0.41,0.234-0.686,0.545-0.831,0.932c-0.147,0.387-0.2,0.941-0.149,1.642l0.152,2.23l2.339-0.676
								c1.121-0.352,1.82-0.47,2.095-0.362c0.396,0.15,0.637,0.377,0.725,0.676c0.092,0.292,0.147,0.621,0.171,0.976l0.133,1.914
								c0.066,1.006-0.194,1.917-0.786,2.737c-0.59,0.821-1.357,1.509-2.303,2.056c-0.947,0.544-1.738,0.763-2.372,0.645
								c-0.638-0.111-0.988-0.667-1.054-1.674l-0.057-0.804c-0.019-0.28,0.162-0.528,0.54-0.746
								c0.383-0.223,0.582-0.193,0.602,0.087l0.068,0.99c0.031,0.502,0.253,0.753,0.667,0.745c0.408-0.003,0.914-0.174,1.518-0.522
								c0.602-0.35,1.103-0.757,1.503-1.228c0.398-0.473,0.579-0.954,0.546-1.438l-0.154-2.25c-0.026-0.4-0.173-0.629-0.437-0.667
								c-0.266-0.047-0.701,0.018-1.311,0.193l-2.804,0.82c-0.272,0.083-0.463,0.066-0.567-0.047
								C164.43,177.876,164.362,177.592,164.329,177.143z"/>
						</g>
					</g>
				</g>
				<g>
					<g>
						<path style="fill:#BA68C8;" d="M172.717,246.667c-0.167-2.448-1.12-4.188-2.513-5.001c-0.695-0.406-3.386-1.956-4.077-2.357
							c-1.289-0.748-2.95-0.704-4.714,0.315c-3.682,2.126-6.405,7.677-6.083,12.4c0.169,2.472,1.14,4.223,2.555,5.025
							c0.685,0.389,3.359,1.948,4.061,2.348c1.285,0.732,2.936,0.681,4.688-0.33C170.316,256.941,173.039,251.39,172.717,246.667z"
							/>
						<path style="opacity:0.2;fill:#FFFFFF;" d="M172.717,246.667c-0.167-2.448-1.12-4.188-2.513-5.001
							c-0.695-0.406-3.386-1.956-4.077-2.357c-1.289-0.748-2.95-0.704-4.714,0.315c-3.682,2.126-6.405,7.677-6.083,12.4
							c0.169,2.472,1.14,4.223,2.555,5.025c0.685,0.389,3.359,1.948,4.061,2.348c1.285,0.732,2.936,0.681,4.688-0.33
							C170.316,256.941,173.039,251.39,172.717,246.667z"/>
					</g>
					<path style="opacity:0.2;fill:#FFFFFF;" d="M172.717,246.667c0.322,4.723-2.401,10.274-6.083,12.4
						c-3.682,2.126-6.927,0.02-7.249-4.703s2.401-10.274,6.083-12.4C169.149,239.839,172.395,241.945,172.717,246.667z"/>
				</g>
				<g>
					<path style="fill:#BA68C8;" d="M185.367,218.961l-0.669-9.815l-4.055-2.341l-10.943,6.318l0.883,12.953l4.054,2.341
						C178.257,225.648,181.826,222.505,185.367,218.961z"/>
					<path style="opacity:0.2;" d="M185.367,218.961l-0.669-9.815l-4.055-2.341l-10.943,6.318l0.883,12.953l4.054,2.341
						C178.257,225.648,181.826,222.505,185.367,218.961z"/>
					<polygon style="opacity:0.2;" points="169.7,213.124 173.755,215.464 174.638,228.417 170.584,226.076 					"/>
					<path style="fill:#BA68C8;" d="M184.698,209.146l0.669,9.815c-3.542,3.544-7.111,6.687-10.729,9.456l-0.883-12.953
						L184.698,209.146z"/>
				</g>
				<g>
					<path style="fill:#BA68C8;" d="M172.311,230.162l-0.91-13.339l-4.054-2.341l-14.421,8.326l0.909,13.324l4.054,2.341
						C162.757,236.359,167.557,233.603,172.311,230.162z"/>
					<path style="opacity:0.2;" d="M172.311,230.162l-0.91-13.339l-4.054-2.341l-14.421,8.326l0.909,13.324l4.054,2.341
						C162.757,236.359,167.557,233.603,172.311,230.162z"/>
					<polygon style="opacity:0.2;" points="156.98,225.149 152.926,222.808 153.835,236.133 157.889,238.473 					"/>
					<path style="fill:#BA68C8;" d="M156.98,225.149l14.421-8.326l0.91,13.339c-4.754,3.44-9.554,6.196-14.422,8.311L156.98,225.149
						z"/>
				</g>
				<g>
					<path style="fill:#BA68C8;" d="M155.51,239.46l-0.883-12.953l-4.054-2.341l-10.943,6.318l0.669,9.815l4.054,2.341
						C148.102,241.96,151.825,240.893,155.51,239.46z"/>
					<polyline style="opacity:0.2;" points="143.684,232.826 139.629,230.485 140.298,240.3 144.353,242.641 143.684,232.826 					
						"/>
					<path style="opacity:0.2;" d="M155.51,239.46l-0.883-12.953l-4.054-2.341l-10.943,6.318l0.669,9.815l4.054,2.341
						C148.102,241.96,151.825,240.893,155.51,239.46z"/>
					<path style="fill:#BA68C8;" d="M143.684,232.826l10.943-6.318l0.883,12.953c-3.686,1.433-7.408,2.5-11.157,3.18
						L143.684,232.826z"/>
				</g>
			</g>
		</g>
		<path style="opacity:0.2;" d="M138.287,368.178l-7.595-109.424l7.426,4.305c0,0-16.961-13.093-21.119-57.102
			c-2.795-29.576-5.437-36.874-10.252-42.177c-3.805-4.191-52.914-41.572-73.35-57.07c-2.189,4.224-3.397,8.969-3.397,13.89
			l0,30.026c0,5.541,2.603,10.762,7.045,14.076c17.555,13.096,34.444,29.736,41.893,42.054
			c7.315,12.096,10.875,27.421,14.103,62.392c2.463,26.678,5.53,62.965,6.912,79.471c0.463,5.53,3.605,10.48,8.411,13.255
			l21.917,12.654c5.241,3.026,11.698,3.026,16.94,0C142.906,375.7,138.596,372.637,138.287,368.178z"/>
	</g>
</g>
<g id="Speech_Bubble">
	<g id="Speech_Bubble_3_">
		<g id="Speech_Bubble_4_">
			<path id="XMLID_453_" style="fill:#BA68C8;" d="M255.943,273.373l-4.988-9.38l4.014-11.585v-7.092l-12.283,7.092v7.092
				l5.28,9.146c0.09,0.155,0.217,0.255,0.359,0.319l-0.003,0.004L255.943,273.373z"/>
			<path id="XMLID_452_" style="opacity:0.2;" d="M255.943,273.373l-4.988-9.38l4.014-11.585v-7.092l-12.283,7.092v7.092l5.28,9.146
				c0.09,0.155,0.217,0.255,0.359,0.319l-0.003,0.004L255.943,273.373z"/>
			<g>
				<path style="fill:#FAFAFA;" d="M256.347,272.987c-0.063,0-0.178-0.019-0.251-0.145l-5.52-9.56l-15.213,8.801
					c-0.179,0.1-0.363,0.19-0.552,0.269l-0.006-0.014c-0.299,0.114-0.584,0.172-0.846,0.172c-0.452,0-0.815-0.169-1.081-0.501
					c-0.298-0.373-0.455-0.934-0.455-1.623v-50.6c0-0.925,0.279-1.967,0.793-2.976l0.233-0.401c0.612-1.102,1.488-2.034,2.402-2.56
					l46.001-26.602c0.495-0.284,0.977-0.436,1.395-0.436c0.702,0,1.207,0.432,1.423,1.216l0.019-0.004
					c0.056,0.314,0.084,0.624,0.084,0.921v50.591c0,2.189-1.538,4.857-3.43,5.946l-19.091,11.064l-5.632,16.246
					C256.56,272.973,256.396,272.987,256.347,272.987z"/>
				<path style="fill:#BA68C8;" d="M283.248,187.313c0.175,0,0.708,0,0.942,0.849l0.015-0.003c0.045,0.269,0.069,0.535,0.069,0.788
					v50.59c0,1.995-1.456,4.52-3.181,5.515l-18.93,10.97l-0.322,0.187l-0.122,0.351l-5.42,15.637l-5.039-8.73l-0.5-0.867
					l-0.866,0.501l-14.769,8.543c-0.16,0.09-0.324,0.17-0.49,0.24l-0.005-0.013c-0.243,0.092-0.468,0.139-0.669,0.139
					c-0.902,0-1.036-1.017-1.036-1.624v-50.6c0-0.785,0.236-1.701,0.658-2.584l0.306-0.551c0.569-1.024,1.376-1.887,2.217-2.37
					l45.999-26.599C282.523,187.441,282.919,187.313,283.248,187.313 M283.248,186.313c-0.494,0-1.052,0.162-1.644,0.503l-46,26.6
					c-1.01,0.58-1.94,1.58-2.59,2.75l-0.01-0.01c-0.67,1.16-1.08,2.46-1.08,3.63v50.6c0,1.663,0.828,2.624,2.036,2.624
					c0.318,0,0.661-0.066,1.024-0.204c-0.23,0.1-0.47,0.18-0.72,0.26c0.49-0.13,0.94-0.32,1.35-0.55l14.78-8.55l5.27,9.13
					c0.155,0.264,0.419,0.391,0.682,0.391c0.315,0,0.628-0.183,0.748-0.531l5.57-16.07l18.93-10.97c2.03-1.17,3.68-4.03,3.68-6.38
					v-50.59c0-0.59-0.1-1.21-0.29-1.82c0.07,0.26,0.13,0.51,0.17,0.77C284.874,186.879,284.173,186.313,283.248,186.313
					L283.248,186.313z"/>
			</g>
			<path style="fill:#BA68C8;" d="M285.154,187.896c-0.43-1.56-1.85-2.06-3.55-1.08l-46,26.6c-1.01,0.58-1.94,1.58-2.59,2.75
				l-0.01-0.01c-0.67,1.16-1.08,2.46-1.08,3.63v50.6c0,2.1,1.32,3.08,3.06,2.42c-0.23,0.1-0.47,0.18-0.72,0.26
				c-0.25,0.07-0.5,0.13-0.76,0.18c-0.8,0.15-1.65,0.18-2.46,0.1c-0.26-0.02-0.52-0.06-0.77-0.11c-0.22-0.04-0.44-0.09-0.65-0.16
				c-0.5-0.13-0.97-0.32-1.38-0.56l-3-1.74c-2.03-1.17-3.68-4.03-3.68-6.37v-50.6c0-1.17,0.41-2.47,1.08-3.63
				c0.33-0.58,0.74-1.13,1.18-1.59c0.11-0.11,0.22-0.23,0.33-0.33c0.12-0.11,0.23-0.21,0.35-0.31
				c0.195-0.154,0.396-0.296,0.598-0.421c0.048-0.03,0.092-0.071,0.142-0.1l29.14-16.84l16.84-9.75c0.04-0.03,0.09-0.05,0.14-0.07
				c0.47-0.26,1.01-0.46,1.59-0.59c0.47-0.11,0.96-0.18,1.46-0.21c0.33-0.01,0.67-0.01,1,0c0.5,0.03,0.99,0.1,1.46,0.21
				c0.63,0.14,1.21,0.36,1.72,0.66l3.01,1.73c0.38,0.23,0.74,0.5,1.08,0.82c0.11,0.11,0.23,0.22,0.34,0.34
				c0.33,0.35,0.63,0.74,0.91,1.16c0.18,0.28,0.35,0.57,0.5,0.87c0.22,0.44,0.41,0.91,0.55,1.37
				C285.054,187.386,285.114,187.636,285.154,187.896z"/>
			<path style="opacity:0.2;" d="M234.984,272.806c-0.23,0.1-0.47,0.18-0.72,0.26c-0.25,0.07-0.5,0.13-0.76,0.18
				c-0.8,0.14-1.64,0.18-2.46,0.1c-0.26-0.02-0.52-0.06-0.77-0.11c-0.22-0.04-0.44-0.09-0.65-0.16c-0.5-0.13-0.97-0.32-1.38-0.56
				l-3-1.74c-2.03-1.17-3.68-4.03-3.68-6.37v-50.6c0-1.17,0.41-2.47,1.08-3.63l0.01,0.01l10.35,5.97c-0.67,1.16-1.08,2.46-1.08,3.63
				v50.6C231.924,272.486,233.244,273.466,234.984,272.806z"/>
			<path style="opacity:0.3;fill:#FFFFFF;" d="M285.154,187.896c-0.43-1.56-1.85-2.06-3.55-1.08l-46,26.6
				c-1.01,0.58-1.94,1.58-2.59,2.75l-0.01-0.01l-10.35-5.97c0.33-0.59,0.73-1.13,1.17-1.6c0.11-0.11,0.22-0.23,0.33-0.33
				c0.12-0.11,0.23-0.21,0.35-0.31c0.24-0.19,0.49-0.37,0.74-0.51l29.14-16.85l16.84-9.75c0.04-0.03,0.09-0.05,0.14-0.07
				c0.47-0.26,1.02-0.45,1.59-0.59c0.47-0.11,0.96-0.18,1.46-0.21c0.33-0.01,0.67-0.01,1,0c0.5,0.03,0.99,0.1,1.46,0.21
				c0.63,0.15,1.21,0.37,1.72,0.66l3.01,1.73c0.37,0.22,0.74,0.49,1.08,0.82c0.11,0.11,0.23,0.22,0.34,0.34
				c0.34,0.35,0.64,0.74,0.91,1.16c0.18,0.28,0.35,0.57,0.5,0.87c0.22,0.44,0.41,0.91,0.55,1.37
				C285.054,187.386,285.114,187.636,285.154,187.896z"/>
		</g>
		<g>
			<path style="fill:#455A64;" d="M249.746,232.284c-0.023,0.43-0.042,1.015-0.054,1.756c-0.013,0.742-0.019,1.503-0.019,2.285
				c0,0.783,0.006,1.545,0.019,2.288c0.012,0.744,0.03,1.317,0.054,1.718c0.048,0.707,0.155,1.348,0.324,1.92
				c0.166,0.574,0.43,1.014,0.789,1.316c0.36,0.303,0.814,0.448,1.365,0.434c0.551-0.014,1.233-0.258,2.048-0.729
				c0.814-0.469,1.484-0.983,2.012-1.544c0.526-0.559,0.958-1.119,1.293-1.681c0.335-0.561,0.593-1.115,0.772-1.667
				c0.18-0.55,0.317-1.046,0.413-1.483c0.12-0.58,0.252-1.016,0.395-1.307c0.144-0.289,0.42-0.553,0.826-0.787l4.706-2.717
				c0.216-0.125,0.4-0.128,0.558-0.012c0.155,0.119,0.233,0.32,0.233,0.609c-0.025,1.642-0.324,3.348-0.898,5.115
				c-0.575,1.77-1.365,3.471-2.371,5.104c-1.006,1.635-2.186,3.155-3.538,4.558c-1.354,1.404-2.819,2.562-4.4,3.475
				c-1.725,0.995-3.263,1.541-4.616,1.635c-1.354,0.096-2.509-0.172-3.467-0.8c-0.957-0.628-1.693-1.585-2.209-2.867
				c-0.515-1.284-0.808-2.782-0.879-4.497c-0.049-1.281-0.072-2.672-0.072-4.174c0-1.5,0.023-2.951,0.072-4.352
				c0.047-1.783,0.334-3.618,0.861-5.502c0.527-1.886,1.263-3.691,2.209-5.42c0.946-1.727,2.102-3.327,3.467-4.803
				c1.365-1.474,2.909-2.709,4.634-3.705c1.581-0.912,3.047-1.447,4.4-1.606c1.353-0.157,2.532-0.001,3.538,0.472
				c1.006,0.473,1.796,1.262,2.371,2.367c0.574,1.106,0.873,2.465,0.898,4.08c0,0.287-0.078,0.58-0.233,0.877
				c-0.157,0.298-0.342,0.508-0.558,0.633l-4.706,2.717c-0.406,0.234-0.683,0.291-0.826,0.166c-0.142-0.125-0.274-0.408-0.395-0.851
				c-0.096-0.327-0.233-0.663-0.413-1.007c-0.18-0.342-0.438-0.602-0.772-0.775c-0.335-0.173-0.767-0.235-1.293-0.188
				c-0.527,0.05-1.198,0.309-2.012,0.779c-0.814,0.47-1.497,1.016-2.048,1.637c-0.551,0.622-1.005,1.291-1.365,2.009
				c-0.359,0.72-0.623,1.462-0.789,2.229C249.902,230.759,249.794,231.523,249.746,232.284z"/>
			<path style="fill:#455A64;" d="M272.987,205.888c0.6-0.346,1.192-0.576,1.779-0.692c0.586-0.114,1.112-0.075,1.58,0.118
				c0.467,0.193,0.85,0.531,1.149,1.012c0.299,0.482,0.473,1.141,0.522,1.975c0.022,0.242,0.035,0.666,0.035,1.272
				c0,0.607-0.013,1.046-0.035,1.313c-0.049,0.891-0.211,1.742-0.485,2.556c-0.276,0.813-0.646,1.587-1.113,2.318
				c-0.468,0.733-0.995,1.382-1.581,1.942c-0.587,0.563-1.203,1.03-1.851,1.404c-0.646,0.373-1.263,0.617-1.85,0.732
				c-0.587,0.116-1.113,0.076-1.58-0.117c-0.467-0.193-0.845-0.535-1.132-1.023c-0.287-0.488-0.443-1.156-0.467-2.006
				c-0.023-0.24-0.035-0.664-0.035-1.271c0-0.607,0.012-1.045,0.035-1.314c0.023-0.875,0.191-1.73,0.503-2.565
				c0.31-0.833,0.7-1.617,1.167-2.35c0.467-0.732,0.994-1.38,1.581-1.942C271.795,206.688,272.388,206.234,272.987,205.888z
				 M272.987,209.527c-0.311,0.18-0.55,0.455-0.718,0.822c-0.168,0.369-0.275,0.934-0.323,1.695
				c-0.024,0.27-0.036,0.629-0.036,1.074c0,0.447,0.012,0.793,0.036,1.033c0.048,0.771,0.155,1.229,0.323,1.37
				c0.168,0.143,0.407,0.124,0.718-0.056c0.312-0.18,0.551-0.438,0.72-0.773c0.167-0.336,0.274-0.917,0.322-1.744
				c0.024-0.268,0.037-0.627,0.037-1.074c0-0.446-0.013-0.791-0.037-1.033c-0.048-0.706-0.155-1.146-0.322-1.322
				C273.537,209.346,273.298,209.347,272.987,209.527z"/>
		</g>
	</g>
	<g id="Speech_Bubble_7_">
		<g id="Speech_Bubble_8_">
			<path id="XMLID_270_" style="fill:#BA68C8;" d="M337.184,226.469l-4.988-9.38l4.014-11.585v-7.092l-12.283,7.092v7.092
				l5.28,9.146c0.09,0.154,0.217,0.255,0.359,0.319l-0.003,0.005L337.184,226.469z"/>
			<path id="XMLID_261_" style="opacity:0.2;" d="M337.184,226.469l-4.988-9.38l4.014-11.585v-7.092l-12.283,7.092v7.092l5.28,9.146
				c0.09,0.154,0.217,0.255,0.359,0.319l-0.003,0.005L337.184,226.469z"/>
			<g>
				<path style="fill:#FAFAFA;" d="M337.587,226.083c-0.063,0-0.178-0.019-0.251-0.145l-5.519-9.561l-15.213,8.801
					c-0.179,0.1-0.363,0.189-0.552,0.269l-0.006-0.014c-0.299,0.114-0.584,0.172-0.846,0.172c-0.452,0-0.816-0.169-1.081-0.501
					c-0.299-0.373-0.456-0.935-0.456-1.623v-50.6c0-0.925,0.279-1.967,0.793-2.976l0.233-0.401c0.613-1.102,1.488-2.034,2.403-2.56
					l46.001-26.602c0.494-0.284,0.977-0.436,1.394-0.436c0.702,0,1.208,0.432,1.424,1.216l0.018-0.004
					c0.057,0.314,0.085,0.625,0.085,0.921v50.591c0,2.189-1.539,4.856-3.431,5.946l-19.091,11.064l-5.632,16.246
					C337.8,226.068,337.636,226.083,337.587,226.083z"/>
				<path style="fill:#BA68C8;" d="M364.489,140.408c0.175,0,0.708,0,0.942,0.849l0.015-0.003c0.045,0.269,0.069,0.535,0.069,0.788
					v50.59c0,1.995-1.456,4.52-3.181,5.515l-18.93,10.97l-0.322,0.186l-0.122,0.351l-5.42,15.637l-5.039-8.73l-0.5-0.867
					l-0.866,0.501l-14.769,8.543c-0.16,0.09-0.323,0.17-0.49,0.24l-0.005-0.013c-0.243,0.092-0.468,0.139-0.669,0.139
					c-0.902,0-1.036-1.017-1.036-1.624v-50.6c0-0.785,0.236-1.701,0.658-2.584l0.306-0.551c0.569-1.024,1.376-1.887,2.217-2.37
					l45.999-26.599C363.763,140.536,364.159,140.408,364.489,140.408 M364.489,139.408c-0.494,0-1.052,0.162-1.644,0.503l-46,26.6
					c-1.01,0.58-1.94,1.58-2.59,2.75l-0.01-0.01c-0.67,1.16-1.08,2.46-1.08,3.63v50.6c0,1.663,0.828,2.624,2.036,2.624
					c0.318,0,0.661-0.066,1.024-0.204c-0.23,0.1-0.47,0.18-0.72,0.26c0.49-0.13,0.94-0.32,1.35-0.55l14.78-8.55l5.27,9.13
					c0.155,0.264,0.419,0.391,0.682,0.391c0.315,0,0.628-0.182,0.748-0.531l5.57-16.07l18.93-10.97c2.03-1.17,3.68-4.03,3.68-6.38
					v-50.59c0-0.59-0.1-1.21-0.29-1.82c0.07,0.26,0.13,0.51,0.17,0.77C366.114,139.975,365.414,139.408,364.489,139.408
					L364.489,139.408z"/>
			</g>
			<path style="fill:#BA68C8;" d="M366.395,140.992c-0.43-1.56-1.85-2.06-3.55-1.08l-46,26.6c-1.01,0.58-1.94,1.58-2.59,2.75
				l-0.01-0.01c-0.67,1.16-1.08,2.46-1.08,3.63v50.6c0,2.1,1.32,3.08,3.06,2.42c-0.23,0.1-0.47,0.18-0.72,0.26
				c-0.25,0.07-0.5,0.13-0.76,0.18c-0.8,0.15-1.65,0.18-2.46,0.1c-0.26-0.02-0.52-0.06-0.77-0.11c-0.22-0.04-0.44-0.09-0.65-0.16
				c-0.5-0.13-0.97-0.32-1.38-0.56l-3-1.74c-2.03-1.17-3.68-4.03-3.68-6.37v-50.6c0-1.17,0.41-2.47,1.08-3.63
				c0.33-0.58,0.74-1.13,1.18-1.59c0.11-0.11,0.22-0.23,0.33-0.33c0.12-0.11,0.23-0.21,0.35-0.31
				c0.195-0.154,0.396-0.296,0.598-0.421c0.048-0.03,0.092-0.071,0.142-0.099l29.14-16.84l16.84-9.75c0.04-0.03,0.09-0.05,0.14-0.07
				c0.47-0.26,1.01-0.46,1.59-0.59c0.47-0.11,0.96-0.18,1.46-0.21c0.33-0.01,0.67-0.01,1,0c0.5,0.03,0.99,0.1,1.46,0.21
				c0.63,0.14,1.21,0.36,1.72,0.66l3.01,1.73c0.38,0.23,0.74,0.5,1.08,0.82c0.11,0.11,0.23,0.22,0.34,0.34
				c0.33,0.35,0.63,0.74,0.91,1.16c0.18,0.28,0.35,0.57,0.5,0.87c0.22,0.44,0.41,0.91,0.55,1.37
				C366.295,140.482,366.355,140.732,366.395,140.992z"/>
			<path style="opacity:0.2;" d="M316.225,225.902c-0.23,0.1-0.47,0.18-0.72,0.26c-0.25,0.07-0.5,0.13-0.76,0.18
				c-0.8,0.14-1.64,0.18-2.46,0.1c-0.26-0.02-0.52-0.06-0.77-0.11c-0.22-0.04-0.44-0.09-0.65-0.16c-0.5-0.13-0.97-0.32-1.38-0.56
				l-3-1.74c-2.03-1.17-3.68-4.03-3.68-6.37v-50.6c0-1.17,0.41-2.47,1.08-3.63l0.01,0.01l10.35,5.97c-0.67,1.16-1.08,2.46-1.08,3.63
				v50.6C313.165,225.582,314.484,226.562,316.225,225.902z"/>
			<path style="opacity:0.3;fill:#FFFFFF;" d="M366.395,140.992c-0.43-1.56-1.85-2.06-3.55-1.08l-46,26.6
				c-1.01,0.58-1.94,1.58-2.59,2.75l-0.01-0.01l-10.35-5.97c0.33-0.59,0.73-1.13,1.17-1.6c0.11-0.11,0.22-0.23,0.33-0.33
				c0.12-0.11,0.23-0.21,0.35-0.31c0.24-0.19,0.49-0.37,0.74-0.51l29.14-16.85l16.84-9.75c0.04-0.03,0.09-0.05,0.14-0.07
				c0.47-0.26,1.02-0.45,1.59-0.59c0.47-0.11,0.96-0.18,1.46-0.21c0.33-0.01,0.67-0.01,1,0c0.5,0.03,0.99,0.1,1.46,0.21
				c0.63,0.15,1.21,0.37,1.72,0.66l3.01,1.73c0.37,0.22,0.74,0.49,1.08,0.82c0.11,0.11,0.23,0.22,0.34,0.34
				c0.34,0.35,0.64,0.74,0.91,1.16c0.18,0.28,0.35,0.57,0.5,0.87c0.22,0.44,0.41,0.91,0.55,1.37
				C366.295,140.482,366.355,140.732,366.395,140.992z"/>
		</g>
		<g>
			<path style="fill:#455A64;" d="M344.116,165.06c0.264-0.152,0.49-0.154,0.683-0.01c0.192,0.145,0.287,0.393,0.287,0.743v5.077
				c0,0.352-0.095,0.711-0.287,1.076c-0.192,0.367-0.419,0.625-0.683,0.777l-10.74,6.2v6.562l10.022-5.786
				c0.263-0.151,0.49-0.155,0.683-0.011c0.191,0.146,0.287,0.393,0.287,0.744v5.076c0,0.352-0.096,0.711-0.287,1.076
				c-0.192,0.367-0.42,0.625-0.683,0.777l-10.022,5.786v10.346c0,0.352-0.096,0.71-0.287,1.076c-0.192,0.366-0.42,0.625-0.683,0.776
				l-4.705,2.717c-0.265,0.152-0.492,0.157-0.683,0.012c-0.192-0.145-0.288-0.393-0.288-0.744v-30.94
				c0-0.351,0.096-0.708,0.288-1.075c0.19-0.366,0.418-0.625,0.683-0.777L344.116,165.06z"/>
			<path style="fill:#455A64;" d="M352.702,159.864c0.599-0.346,1.191-0.576,1.778-0.691c0.587-0.115,1.113-0.076,1.581,0.117
				c0.467,0.193,0.85,0.532,1.149,1.012c0.299,0.483,0.473,1.141,0.522,1.975c0.022,0.243,0.035,0.666,0.035,1.273
				c0,0.607-0.013,1.045-0.035,1.313c-0.049,0.891-0.211,1.743-0.486,2.557c-0.275,0.813-0.645,1.586-1.112,2.318
				c-0.468,0.733-0.995,1.381-1.581,1.942c-0.587,0.563-1.203,1.03-1.851,1.403c-0.646,0.373-1.264,0.618-1.85,0.732
				c-0.587,0.117-1.113,0.077-1.58-0.117c-0.467-0.192-0.845-0.534-1.132-1.022c-0.288-0.488-0.443-1.157-0.467-2.006
				c-0.023-0.241-0.036-0.665-0.036-1.273c0-0.606,0.013-1.044,0.036-1.313c0.023-0.876,0.191-1.73,0.503-2.565
				c0.311-0.833,0.7-1.617,1.167-2.35c0.467-0.732,0.994-1.381,1.581-1.943C351.51,160.665,352.103,160.21,352.702,159.864z
				 M352.702,163.504c-0.311,0.18-0.551,0.454-0.718,0.821c-0.168,0.369-0.275,0.934-0.323,1.695
				c-0.024,0.27-0.036,0.629-0.036,1.075c0,0.447,0.012,0.792,0.036,1.032c0.048,0.771,0.155,1.229,0.323,1.371
				c0.167,0.143,0.407,0.124,0.718-0.056c0.311-0.18,0.551-0.438,0.719-0.774c0.168-0.336,0.275-0.916,0.323-1.743
				c0.023-0.269,0.036-0.628,0.036-1.075c0-0.445-0.013-0.79-0.036-1.032c-0.048-0.706-0.155-1.147-0.323-1.322
				C353.252,163.323,353.013,163.324,352.702,163.504z"/>
		</g>
	</g>
</g>
<g id="Heat_Icons">
	<g id="Heat_Icon_1_">
		<g id="XMLID_537_">
			<path id="XMLID_585_" style="fill:#BA68C8;" d="M454.721,118.38l-28.953-16.716c-2.482-1.433-6.506-1.433-8.988,0l-0.521,0.307
				c-2.482,1.433-4.494,4.918-4.494,7.784l0,33.433c0,2.866,2.012,6.351,4.494,7.784l28.953,16.716c2.482,1.433,6.506,1.433,8.988,0
				l0.521-0.306c2.481-1.433,4.494-4.918,4.494-7.784v-33.433C459.214,123.297,457.202,119.813,454.721,118.38z"/>
			<path id="XMLID_584_" style="opacity:0.7;fill:#FFFFFF;" d="M454.721,118.38l-28.953-16.716c-2.482-1.433-6.506-1.433-8.988,0
				l-0.521,0.307c-2.482,1.433-4.494,4.918-4.494,7.784l0,33.433c0,2.866,2.012,6.351,4.494,7.784l28.953,16.716
				c2.482,1.433,6.506,1.433,8.988,0l0.521-0.306c2.481-1.433,4.494-4.918,4.494-7.784v-33.433
				C459.214,123.297,457.202,119.813,454.721,118.38z"/>
			<path style="fill:#BA68C8;" d="M445.212,123.875l-28.953-16.716c-2.482-1.433-4.494-0.271-4.494,2.594l0,33.433
				c0,2.866,2.012,6.351,4.494,7.784l28.953,16.716c2.482,1.433,4.494,0.271,4.494-2.595l0-33.432
				C449.706,128.793,447.693,125.309,445.212,123.875z"/>
			<path style="opacity:0.55;fill:#FFFFFF;" d="M445.212,123.875l-28.953-16.716c-2.482-1.433-4.494-0.271-4.494,2.594l0,33.433
				c0,2.866,2.012,6.351,4.494,7.784l28.953,16.716c2.482,1.433,4.494,0.271,4.494-2.595l0-33.432
				C449.706,128.793,447.693,125.309,445.212,123.875z"/>
			<path id="XMLID_583_" style="fill:#BA68C8;" d="M459.214,159.596c0,2.866-2.012,6.35-4.494,7.784l-0.521,0.306
				c-2.243,1.295-5.734,1.408-8.22,0.362c2.115,0.8,3.726-0.394,3.726-2.957l0-33.432c0-1.433-0.503-3.021-1.316-4.429l9.509-5.496
				c0.813,1.408,1.316,2.996,1.316,4.429V159.596z"/>
			<path id="XMLID_582_" style="opacity:0.4;fill:#FFFFFF;" d="M459.214,159.596c0,2.866-2.012,6.35-4.494,7.784l-0.521,0.306
				c-2.243,1.295-5.734,1.408-8.22,0.362c2.115,0.8,3.726-0.394,3.726-2.957l0-33.432c0-1.433-0.503-3.021-1.316-4.429l9.509-5.496
				c0.813,1.408,1.316,2.996,1.316,4.429V159.596z"/>
		</g>
		<g id="XMLID_545_">
			<g id="XMLID_546_">
				<g>
					<path style="fill:#FFFFFF;" d="M418.004,139.873c0.271,0.787,0.874,1.348,1.345,1.259c0.36-0.069,0.538-0.499,0.483-1.048
						l1.469-0.283L420.829,142c-0.049,0.232,0.069,0.565,0.265,0.744c0.03,0.028,0.059,0.05,0.089,0.067
						c0.164,0.095,0.312,0.033,0.354-0.162l0.647-3.017l1.38-0.266l-0.777,3.633c-0.049,0.232,0.067,0.566,0.263,0.745
						c0.03,0.028,0.061,0.048,0.091,0.066c0.162,0.094,0.311,0.034,0.352-0.163l0.953-4.451l0.975-0.189l4.95,6.667v1.503
						l-2.772,1.998c-0.144,0.104-0.148,0.41-0.008,0.684c0.071,0.139,0.166,0.244,0.261,0.298c0.093,0.054,0.184,0.061,0.255,0.01
						l2.264-1.633v2.125l-1.881,1.356c-0.144,0.104-0.146,0.411-0.006,0.685c0.071,0.139,0.166,0.244,0.261,0.298
						c0.091,0.052,0.184,0.059,0.255,0.007l1.37-0.988v2.265c-0.364-0.018-0.621,0.309-0.621,0.86c0,0.728,0.441,1.57,0.985,1.884
						c0.544,0.314,0.985-0.019,0.985-0.747c0-0.551-0.257-1.174-0.619-1.576v-2.265l1.37,2.571c0.069,0.132,0.162,0.233,0.253,0.286
						c0.095,0.055,0.19,0.06,0.263,0.004c0.14-0.112,0.136-0.422-0.008-0.693l-1.878-3.526v-2.125l2.262,4.246
						c0.071,0.133,0.164,0.232,0.255,0.284c0.095,0.055,0.19,0.059,0.261,0.003c0.14-0.111,0.138-0.421-0.006-0.692l-2.772-5.2
						v-1.503l4.948-0.953l0.975,1.314l0.953,5.552c0.042,0.245,0.19,0.476,0.354,0.571c0.03,0.017,0.059,0.032,0.089,0.038
						c0.196,0.047,0.314-0.151,0.265-0.44l-0.777-4.53l1.38,1.859l0.645,3.763c0.042,0.243,0.192,0.477,0.354,0.571
						c0.03,0.017,0.059,0.029,0.089,0.036c0.196,0.047,0.314-0.148,0.265-0.438l-0.471-2.742l1.471,1.98
						c-0.057,0.484,0.121,1.119,0.48,1.604c0.471,0.633,1.074,0.768,1.347,0.295c0.271-0.471,0.111-1.368-0.362-2.002
						c-0.358-0.484-0.795-0.675-1.102-0.531l-1.469-1.979l1.839,0.368c0.196,0.042,0.308-0.162,0.253-0.455
						c-0.055-0.29-0.257-0.557-0.451-0.595l-2.525-0.509l-1.38-1.859l3.041,0.612c0.194,0.041,0.307-0.163,0.251-0.453
						c-0.053-0.289-0.257-0.56-0.451-0.598l-3.723-0.75l-0.975-1.312v-7.62l0.975-0.186l3.723,3.55
						c0.034,0.033,0.067,0.057,0.101,0.077c0.158,0.091,0.304,0.036,0.35-0.154c0.055-0.226-0.057-0.56-0.251-0.743l-3.041-2.9
						l1.38-0.266l2.525,2.407c0.034,0.033,0.067,0.057,0.099,0.076c0.16,0.092,0.306,0.037,0.352-0.153
						c0.055-0.227-0.057-0.56-0.253-0.745l-1.839-1.755l1.469-0.283c0.307,0.499,0.744,0.812,1.102,0.741
						c0.473-0.088,0.633-0.8,0.362-1.584c-0.273-0.788-0.876-1.35-1.347-1.26c-0.36,0.069-0.538,0.499-0.48,1.049l-1.471,0.282
						l0.471-2.199c0.049-0.233-0.069-0.565-0.265-0.744c-0.194-0.178-0.394-0.138-0.443,0.095l-0.645,3.018l-1.38,0.266l0.777-3.633
						c0.049-0.232-0.069-0.567-0.265-0.746c-0.196-0.179-0.393-0.135-0.443,0.098l-0.953,4.451l-0.975,0.189l-4.948-6.666v-1.503
						l2.772-1.998c0.144-0.104,0.146-0.411,0.006-0.685c-0.14-0.273-0.372-0.412-0.516-0.309l-2.262,1.634v-2.125l1.878-1.357
						c0.144-0.104,0.148-0.41,0.008-0.684c-0.142-0.275-0.372-0.41-0.516-0.306l-1.37,0.989v-2.265
						c0.362,0.016,0.619-0.31,0.619-0.861c0-0.728-0.441-1.57-0.985-1.884c-0.544-0.314-0.985,0.019-0.985,0.747
						c0,0.551,0.257,1.174,0.621,1.577v2.265l-1.37-2.571c-0.144-0.27-0.376-0.401-0.516-0.29c-0.14,0.111-0.138,0.421,0.006,0.692
						l1.881,3.527v2.125l-2.264-4.247c-0.144-0.271-0.376-0.399-0.516-0.287c-0.14,0.112-0.137,0.422,0.008,0.693l2.772,5.2v1.503
						l-4.95,0.952l-0.975-1.314l-0.953-5.552c-0.049-0.29-0.247-0.562-0.443-0.609c-0.196-0.047-0.312,0.152-0.263,0.441l0.777,4.53
						l-1.38-1.86l-0.647-3.764c-0.049-0.289-0.247-0.562-0.443-0.606c-0.196-0.047-0.314,0.148-0.265,0.438l0.471,2.742
						l-1.469-1.979c0.055-0.485-0.123-1.12-0.483-1.605c-0.471-0.633-1.074-0.768-1.345-0.294c-0.273,0.47-0.111,1.368,0.36,2.001
						c0.36,0.485,0.795,0.675,1.101,0.53l1.471,1.981l-1.841-0.369c-0.194-0.041-0.306,0.163-0.253,0.452
						c0.046,0.242,0.192,0.467,0.352,0.559c0.032,0.018,0.065,0.032,0.099,0.039l2.525,0.509l1.38,1.86l-3.039-0.611
						c-0.196-0.042-0.309,0.162-0.253,0.452c0.045,0.243,0.192,0.467,0.352,0.559c0.032,0.018,0.065,0.033,0.099,0.039l3.724,0.75
						l0.977,1.313v7.62l-0.977,0.185l-3.724-3.55c-0.194-0.186-0.395-0.149-0.451,0.077c-0.055,0.226,0.057,0.56,0.253,0.745
						l3.039,2.899l-1.38,0.266l-2.525-2.407c-0.194-0.186-0.396-0.152-0.451,0.075c-0.053,0.23,0.059,0.564,0.253,0.747l1.841,1.756
						l-1.471,0.282c-0.307-0.499-0.742-0.81-1.101-0.741C417.893,138.377,417.731,139.088,418.004,139.873z M431.1,136.793v-6.475
						l4.204,5.665L431.1,136.793z M431.464,137.845l4.206-0.809l-0.001,6.473L431.464,137.845z M431.099,138.475l4.206,5.666
						l-4.205,0.808L431.099,138.475z M430.37,138.053v6.475l-4.204-5.665L430.37,138.053z M430.006,137.001l-4.206,0.809
						l0.001-6.473L430.006,137.001z M430.371,136.371l-4.206-5.666l4.205-0.808L430.371,136.371z"/>
				</g>
			</g>
		</g>
	</g>
	<g id="Heat_Icon">
		<g id="XMLID_458_">
			<path id="XMLID_532_" style="fill:#BA68C8;" d="M454.72,194.175l-28.953-16.717c-2.482-1.433-6.506-1.433-8.988,0l-0.521,0.307
				c-2.482,1.433-4.494,4.918-4.494,7.784l0,33.433c0,2.866,2.012,6.351,4.494,7.784l28.954,16.716c2.482,1.433,6.506,1.433,8.988,0
				l0.521-0.306c2.482-1.433,4.494-4.918,4.494-7.784v-33.433C459.214,199.093,457.202,195.608,454.72,194.175z"/>
			<path id="XMLID_481_" style="opacity:0.7;fill:#FFFFFF;" d="M454.72,194.175l-28.953-16.717c-2.482-1.433-6.506-1.433-8.988,0
				l-0.521,0.307c-2.482,1.433-4.494,4.918-4.494,7.784l0,33.433c0,2.866,2.012,6.351,4.494,7.784l28.954,16.716
				c2.482,1.433,6.506,1.433,8.988,0l0.521-0.306c2.482-1.433,4.494-4.918,4.494-7.784v-33.433
				C459.214,199.093,457.202,195.608,454.72,194.175z"/>
			<path id="XMLID_470_" style="fill:#BA68C8;" d="M411.764,185.549c0-2.866,2.012-4.027,4.494-2.594l28.954,16.716
				c2.482,1.433,4.494,4.918,4.494,7.784v33.433c0,2.866-2.012,4.028-4.494,2.594l-28.954-16.716
				c-2.482-1.433-4.494-4.918-4.494-7.784L411.764,185.549z"/>
			<path id="XMLID_468_" style="opacity:0.55;fill:#FFFFFF;" d="M411.764,185.549c0-2.866,2.012-4.027,4.494-2.594l28.954,16.716
				c2.482,1.433,4.494,4.918,4.494,7.784v33.433c0,2.866-2.012,4.028-4.494,2.594l-28.954-16.716
				c-2.482-1.433-4.494-4.918-4.494-7.784L411.764,185.549z"/>
			<path id="XMLID_457_" style="fill:#BA68C8;" d="M459.214,235.391c0,2.866-2.012,6.351-4.494,7.784l-0.521,0.306
				c-2.243,1.295-5.734,1.408-8.22,0.362c2.116,0.8,3.726-0.394,3.726-2.957v-33.433c0-1.433-0.503-3.021-1.316-4.429l9.509-5.496
				c0.813,1.408,1.317,2.996,1.317,4.429L459.214,235.391z"/>
			<path id="XMLID_295_" style="opacity:0.4;fill:#FFFFFF;" d="M459.214,235.391c0,2.866-2.012,6.351-4.494,7.784l-0.521,0.306
				c-2.243,1.295-5.734,1.408-8.22,0.362c2.116,0.8,3.726-0.394,3.726-2.957v-33.433c0-1.433-0.503-3.021-1.316-4.429l9.509-5.496
				c0.813,1.408,1.317,2.996,1.317,4.429L459.214,235.391z"/>
		</g>
		<path style="fill:#FFFFFF;" d="M430.735,205.189c-3.326-1.92-6.022,0.118-6.022,4.553c0,4.435,2.696,9.586,6.022,11.506
			c3.326,1.92,6.022-0.118,6.022-4.553C436.757,212.26,434.061,207.109,430.735,205.189z M430.734,202.916
			c0.289,0.167,0.525-0.011,0.525-0.397v-7.173c0-0.386-0.235-0.835-0.525-1.003c-0.29-0.167-0.525,0.01-0.525,0.397v7.173
			C430.21,202.3,430.445,202.749,430.734,202.916z M436.569,209.508c0.134,0.077,0.269,0.087,0.371,0.009l3.804-2.877
			c0.205-0.155,0.205-0.598,0-0.99c-0.205-0.392-0.537-0.583-0.742-0.428l-3.804,2.877c-0.205,0.155-0.205,0.598,0,0.99
			C436.3,209.284,436.435,209.43,436.569,209.508z M444.366,220.389l-5.381-3.107c-0.29-0.167-0.525,0.011-0.525,0.397
			s0.235,0.836,0.525,1.003l5.381,3.107c0.29,0.167,0.525-0.011,0.525-0.397S444.656,220.556,444.366,220.389z M436.94,224.085
			c-0.205-0.392-0.537-0.583-0.742-0.429c-0.205,0.155-0.205,0.598,0,0.99l3.804,7.269c0.103,0.196,0.237,0.342,0.371,0.419
			c0.134,0.077,0.269,0.087,0.371,0.009c0.205-0.155,0.205-0.598,0-0.99L436.94,224.085z M430.734,223.52
			c-0.29-0.167-0.525,0.011-0.525,0.397v7.173c0,0.386,0.235,0.835,0.525,1.003c0.289,0.167,0.525-0.01,0.525-0.397v-7.173
			C431.259,224.136,431.024,223.687,430.734,223.52z M424.529,216.92l-3.804,2.876c-0.205,0.155-0.205,0.598,0,0.99
			c0.102,0.196,0.237,0.342,0.371,0.419c0.134,0.077,0.269,0.087,0.371,0.009l3.804-2.876c0.205-0.155,0.205-0.598,0-0.99
			C425.067,216.957,424.734,216.765,424.529,216.92z M423.009,208.758c0-0.386-0.235-0.835-0.525-1.003l-5.381-3.107
			c-0.29-0.167-0.525,0.01-0.525,0.397s0.235,0.835,0.525,1.003l5.381,3.106C422.774,209.322,423.009,209.144,423.009,208.758z
			 M424.529,202.352c0.103,0.196,0.237,0.342,0.371,0.419c0.134,0.077,0.269,0.087,0.371,0.009c0.205-0.155,0.205-0.598,0-0.99
			l-3.804-7.27c-0.205-0.392-0.537-0.583-0.742-0.428c-0.205,0.155-0.205,0.598,0,0.99L424.529,202.352z"/>
	</g>
</g>
</svg>
